<?xml version="1.0" encoding="UTF-8"?>
<svg xmlns="http://www.w3.org/2000/svg" width="1500" height="2100" viewBox="0 0 1500 2100" role="img" aria-label="CustomCard generated artwork layer" data-customcard-theme="citrus">
<rect width="1500" height="2100" fill="#0f3d3f"/>


    <g data-customcard-hero="citrus" opacity="0.42">
      <path d="M1010 1710 C1120 1570 1246 1514 1402 1458" fill="none" stroke="#f6b53f" stroke-width="14" stroke-linecap="round"/>
      <circle cx="1156" cy="1564" r="92" fill="#f6b53f" stroke="#fff8dc" stroke-width="10"/>
      <path d="M1156 1482 V1646 M1074 1564 H1238 M1098 1506 L1214 1622 M1214 1506 L1098 1622" stroke="#fff8dc" stroke-width="7" opacity="0.86"/>
      <ellipse cx="1280" cy="1454" rx="34" ry="98" fill="#d6d7a3" transform="rotate(46 1280 1454)"/>
      <ellipse cx="1052" cy="1680" rx="30" ry="84" fill="#1f7a68" transform="rotate(-42 1052 1680)"/>
    </g>
  
<g transform="translate(325 1096) rotate(11) scale(0.76)">
    <g opacity="0.84">
      <circle cx="0" cy="0" r="58" fill="#f6b53f" stroke="#fff8dc" stroke-width="8"/>
      <line x1="0" y1="0" x2="52" y2="0" stroke="#fff8dc" stroke-width="5"/><line x1="0" y1="0" x2="42.068883707497264" y2="30.564833119208604" stroke="#fff8dc" stroke-width="5"/><line x1="0" y1="0" x2="16.068883707497267" y2="49.45493884734798" stroke="#fff8dc" stroke-width="5"/><line x1="0" y1="0" x2="-16.06888370749726" y2="49.45493884734799" stroke="#fff8dc" stroke-width="5"/><line x1="0" y1="0" x2="-42.068883707497264" y2="30.564833119208608" stroke="#fff8dc" stroke-width="5"/><line x1="0" y1="0" x2="-52" y2="6.368163355566236e-15" stroke="#fff8dc" stroke-width="5"/><line x1="0" y1="0" x2="-42.068883707497264" y2="-30.564833119208597" stroke="#fff8dc" stroke-width="5"/><line x1="0" y1="0" x2="-16.068883707497275" y2="-49.45493884734798" stroke="#fff8dc" stroke-width="5"/><line x1="0" y1="0" x2="16.068883707497257" y2="-49.45493884734799" stroke="#fff8dc" stroke-width="5"/><line x1="0" y1="0" x2="42.068883707497264" y2="-30.564833119208615" stroke="#fff8dc" stroke-width="5"/>
      <ellipse cx="96" cy="-50" rx="24" ry="62" fill="#1f7a68" transform="rotate(35 96 -50)"/>
      <ellipse cx="-92" cy="54" rx="22" ry="58" fill="#1f7a68" transform="rotate(-42 -92 54)"/>
    </g>
  </g>
<g transform="translate(1608 1387) rotate(-5) scale(0.57)">
    <g opacity="0.84">
      <circle cx="0" cy="0" r="58" fill="#fce7a3" stroke="#fff8dc" stroke-width="8"/>
      <line x1="0" y1="0" x2="52" y2="0" stroke="#fff8dc" stroke-width="5"/><line x1="0" y1="0" x2="42.068883707497264" y2="30.564833119208604" stroke="#fff8dc" stroke-width="5"/><line x1="0" y1="0" x2="16.068883707497267" y2="49.45493884734798" stroke="#fff8dc" stroke-width="5"/><line x1="0" y1="0" x2="-16.06888370749726" y2="49.45493884734799" stroke="#fff8dc" stroke-width="5"/><line x1="0" y1="0" x2="-42.068883707497264" y2="30.564833119208608" stroke="#fff8dc" stroke-width="5"/><line x1="0" y1="0" x2="-52" y2="6.368163355566236e-15" stroke="#fff8dc" stroke-width="5"/><line x1="0" y1="0" x2="-42.068883707497264" y2="-30.564833119208597" stroke="#fff8dc" stroke-width="5"/><line x1="0" y1="0" x2="-16.068883707497275" y2="-49.45493884734798" stroke="#fff8dc" stroke-width="5"/><line x1="0" y1="0" x2="16.068883707497257" y2="-49.45493884734799" stroke="#fff8dc" stroke-width="5"/><line x1="0" y1="0" x2="42.068883707497264" y2="-30.564833119208615" stroke="#fff8dc" stroke-width="5"/>
      <ellipse cx="96" cy="-50" rx="24" ry="62" fill="#d6d7a3" transform="rotate(35 96 -50)"/>
      <ellipse cx="-92" cy="54" rx="22" ry="58" fill="#d6d7a3" transform="rotate(-42 -92 54)"/>
    </g>
  </g>


    <rect x="70" y="70" width="1360" height="1960" rx="18" fill="none" stroke="#f6b53f" stroke-width="5" opacity="0.52"/>
    <rect x="106" y="106" width="1288" height="1888" rx="10" fill="none" stroke="#fff8dc" stroke-width="2" opacity="0.38"/>
  
</svg>