<?xml version="1.0" encoding="UTF-8"?>
<svg xmlns="http://www.w3.org/2000/svg" width="1500" height="2100" viewBox="0 0 1500 2100" role="img" aria-label="CustomCard generated artwork layer">
<rect width="1500" height="2100" fill="#f8f1e7"/>
<g transform="translate(1312 831) rotate(-2) scale(1.09)">
    <g opacity="0.9">
      <path d="M0 0 C42 -80 96 -80 120 0 C92 72 36 78 0 0Z" fill="#f4b7a1" opacity="0.85"/>
      <path d="M0 0 C-42 -76 -94 -72 -118 4 C-86 70 -34 76 0 0Z" fill="#f4b7a1" opacity="0.72"/>
      <circle cx="0" cy="0" r="20" fill="#f9e6a1"/>
      <ellipse cx="80" cy="92" rx="22" ry="70" fill="#2f6f52" transform="rotate(32 80 92)"/>
      <ellipse cx="-82" cy="-94" rx="20" ry="64" fill="#2f6f52" transform="rotate(28 -82 -94)"/>
    </g>
  </g>
<g transform="translate(1405 1103) rotate(-24) scale(0.82)">
    <g opacity="0.9">
      <path d="M0 0 C42 -80 96 -80 120 0 C92 72 36 78 0 0Z" fill="#f3ce72" opacity="0.85"/>
      <path d="M0 0 C-42 -76 -94 -72 -118 4 C-86 70 -34 76 0 0Z" fill="#f3ce72" opacity="0.72"/>
      <circle cx="0" cy="0" r="20" fill="#f9e6a1"/>
      <ellipse cx="80" cy="92" rx="22" ry="70" fill="#184d3d" transform="rotate(32 80 92)"/>
      <ellipse cx="-82" cy="-94" rx="20" ry="64" fill="#184d3d" transform="rotate(28 -82 -94)"/>
    </g>
  </g>
<g transform="translate(649 1216) rotate(20) scale(0.55)">
    <g opacity="0.9">
      <path d="M0 0 C42 -80 96 -80 120 0 C92 72 36 78 0 0Z" fill="#f4b7a1" opacity="0.85"/>
      <path d="M0 0 C-42 -76 -94 -72 -118 4 C-86 70 -34 76 0 0Z" fill="#f4b7a1" opacity="0.72"/>
      <circle cx="0" cy="0" r="20" fill="#f9e6a1"/>
      <ellipse cx="80" cy="92" rx="22" ry="70" fill="#184d3d" transform="rotate(32 80 92)"/>
      <ellipse cx="-82" cy="-94" rx="20" ry="64" fill="#184d3d" transform="rotate(28 -82 -94)"/>
    </g>
  </g>
<g transform="translate(364 478) rotate(28) scale(0.56)">
    <g opacity="0.9">
      <path d="M0 0 C42 -80 96 -80 120 0 C92 72 36 78 0 0Z" fill="#f3ce72" opacity="0.85"/>
      <path d="M0 0 C-42 -76 -94 -72 -118 4 C-86 70 -34 76 0 0Z" fill="#f3ce72" opacity="0.72"/>
      <circle cx="0" cy="0" r="20" fill="#f9e6a1"/>
      <ellipse cx="80" cy="92" rx="22" ry="70" fill="#2f6f52" transform="rotate(32 80 92)"/>
      <ellipse cx="-82" cy="-94" rx="20" ry="64" fill="#2f6f52" transform="rotate(28 -82 -94)"/>
    </g>
  </g>
<g transform="translate(1265 903) rotate(-32) scale(1.04)">
    <g opacity="0.9">
      <path d="M0 0 C42 -80 96 -80 120 0 C92 72 36 78 0 0Z" fill="#f4b7a1" opacity="0.85"/>
      <path d="M0 0 C-42 -76 -94 -72 -118 4 C-86 70 -34 76 0 0Z" fill="#f4b7a1" opacity="0.72"/>
      <circle cx="0" cy="0" r="20" fill="#f9e6a1"/>
      <ellipse cx="80" cy="92" rx="22" ry="70" fill="#184d3d" transform="rotate(32 80 92)"/>
      <ellipse cx="-82" cy="-94" rx="20" ry="64" fill="#184d3d" transform="rotate(28 -82 -94)"/>
    </g>
  </g>
<g transform="translate(1175 215) rotate(26) scale(0.76)">
    <g opacity="0.9">
      <path d="M0 0 C42 -80 96 -80 120 0 C92 72 36 78 0 0Z" fill="#f3ce72" opacity="0.85"/>
      <path d="M0 0 C-42 -76 -94 -72 -118 4 C-86 70 -34 76 0 0Z" fill="#f3ce72" opacity="0.72"/>
      <circle cx="0" cy="0" r="20" fill="#f9e6a1"/>
      <ellipse cx="80" cy="92" rx="22" ry="70" fill="#184d3d" transform="rotate(32 80 92)"/>
      <ellipse cx="-82" cy="-94" rx="20" ry="64" fill="#184d3d" transform="rotate(28 -82 -94)"/>
    </g>
  </g>
<g transform="translate(588 268) rotate(16) scale(0.89)">
    <g opacity="0.9">
      <path d="M0 0 C42 -80 96 -80 120 0 C92 72 36 78 0 0Z" fill="#f4b7a1" opacity="0.85"/>
      <path d="M0 0 C-42 -76 -94 -72 -118 4 C-86 70 -34 76 0 0Z" fill="#f4b7a1" opacity="0.72"/>
      <circle cx="0" cy="0" r="20" fill="#f9e6a1"/>
      <ellipse cx="80" cy="92" rx="22" ry="70" fill="#2f6f52" transform="rotate(32 80 92)"/>
      <ellipse cx="-82" cy="-94" rx="20" ry="64" fill="#2f6f52" transform="rotate(28 -82 -94)"/>
    </g>
  </g>
<g transform="translate(374 1062) rotate(0) scale(0.85)">
    <g opacity="0.9">
      <path d="M0 0 C42 -80 96 -80 120 0 C92 72 36 78 0 0Z" fill="#f3ce72" opacity="0.85"/>
      <path d="M0 0 C-42 -76 -94 -72 -118 4 C-86 70 -34 76 0 0Z" fill="#f3ce72" opacity="0.72"/>
      <circle cx="0" cy="0" r="20" fill="#f9e6a1"/>
      <ellipse cx="80" cy="92" rx="22" ry="70" fill="#184d3d" transform="rotate(32 80 92)"/>
      <ellipse cx="-82" cy="-94" rx="20" ry="64" fill="#184d3d" transform="rotate(28 -82 -94)"/>
    </g>
  </g>
<g transform="translate(1483 844) rotate(7) scale(1.04)">
    <g opacity="0.9">
      <path d="M0 0 C42 -80 96 -80 120 0 C92 72 36 78 0 0Z" fill="#f4b7a1" opacity="0.85"/>
      <path d="M0 0 C-42 -76 -94 -72 -118 4 C-86 70 -34 76 0 0Z" fill="#f4b7a1" opacity="0.72"/>
      <circle cx="0" cy="0" r="20" fill="#f9e6a1"/>
      <ellipse cx="80" cy="92" rx="22" ry="70" fill="#184d3d" transform="rotate(32 80 92)"/>
      <ellipse cx="-82" cy="-94" rx="20" ry="64" fill="#184d3d" transform="rotate(28 -82 -94)"/>
    </g>
  </g>
<g transform="translate(563 2087) rotate(-33) scale(1.08)">
    <g opacity="0.9">
      <path d="M0 0 C42 -80 96 -80 120 0 C92 72 36 78 0 0Z" fill="#f3ce72" opacity="0.85"/>
      <path d="M0 0 C-42 -76 -94 -72 -118 4 C-86 70 -34 76 0 0Z" fill="#f3ce72" opacity="0.72"/>
      <circle cx="0" cy="0" r="20" fill="#f9e6a1"/>
      <ellipse cx="80" cy="92" rx="22" ry="70" fill="#2f6f52" transform="rotate(32 80 92)"/>
      <ellipse cx="-82" cy="-94" rx="20" ry="64" fill="#2f6f52" transform="rotate(28 -82 -94)"/>
    </g>
  </g>
<g transform="translate(1058 876) rotate(-14) scale(1.14)">
    <g opacity="0.9">
      <path d="M0 0 C42 -80 96 -80 120 0 C92 72 36 78 0 0Z" fill="#f4b7a1" opacity="0.85"/>
      <path d="M0 0 C-42 -76 -94 -72 -118 4 C-86 70 -34 76 0 0Z" fill="#f4b7a1" opacity="0.72"/>
      <circle cx="0" cy="0" r="20" fill="#f9e6a1"/>
      <ellipse cx="80" cy="92" rx="22" ry="70" fill="#184d3d" transform="rotate(32 80 92)"/>
      <ellipse cx="-82" cy="-94" rx="20" ry="64" fill="#184d3d" transform="rotate(28 -82 -94)"/>
    </g>
  </g>
<g transform="translate(812 643) rotate(-24) scale(1.05)">
    <g opacity="0.9">
      <path d="M0 0 C42 -80 96 -80 120 0 C92 72 36 78 0 0Z" fill="#f3ce72" opacity="0.85"/>
      <path d="M0 0 C-42 -76 -94 -72 -118 4 C-86 70 -34 76 0 0Z" fill="#f3ce72" opacity="0.72"/>
      <circle cx="0" cy="0" r="20" fill="#f9e6a1"/>
      <ellipse cx="80" cy="92" rx="22" ry="70" fill="#184d3d" transform="rotate(32 80 92)"/>
      <ellipse cx="-82" cy="-94" rx="20" ry="64" fill="#184d3d" transform="rotate(28 -82 -94)"/>
    </g>
  </g>
<g transform="translate(750 1155) rotate(26) scale(0.78)">
    <g opacity="0.9">
      <path d="M0 0 C42 -80 96 -80 120 0 C92 72 36 78 0 0Z" fill="#f4b7a1" opacity="0.85"/>
      <path d="M0 0 C-42 -76 -94 -72 -118 4 C-86 70 -34 76 0 0Z" fill="#f4b7a1" opacity="0.72"/>
      <circle cx="0" cy="0" r="20" fill="#f9e6a1"/>
      <ellipse cx="80" cy="92" rx="22" ry="70" fill="#2f6f52" transform="rotate(32 80 92)"/>
      <ellipse cx="-82" cy="-94" rx="20" ry="64" fill="#2f6f52" transform="rotate(28 -82 -94)"/>
    </g>
  </g>
<g transform="translate(-58 2021) rotate(-10) scale(0.83)">
    <g opacity="0.9">
      <path d="M0 0 C42 -80 96 -80 120 0 C92 72 36 78 0 0Z" fill="#f3ce72" opacity="0.85"/>
      <path d="M0 0 C-42 -76 -94 -72 -118 4 C-86 70 -34 76 0 0Z" fill="#f3ce72" opacity="0.72"/>
      <circle cx="0" cy="0" r="20" fill="#f9e6a1"/>
      <ellipse cx="80" cy="92" rx="22" ry="70" fill="#184d3d" transform="rotate(32 80 92)"/>
      <ellipse cx="-82" cy="-94" rx="20" ry="64" fill="#184d3d" transform="rotate(28 -82 -94)"/>
    </g>
  </g>
<g transform="translate(372 -90) rotate(-18) scale(0.93)">
    <g opacity="0.9">
      <path d="M0 0 C42 -80 96 -80 120 0 C92 72 36 78 0 0Z" fill="#f4b7a1" opacity="0.85"/>
      <path d="M0 0 C-42 -76 -94 -72 -118 4 C-86 70 -34 76 0 0Z" fill="#f4b7a1" opacity="0.72"/>
      <circle cx="0" cy="0" r="20" fill="#f9e6a1"/>
      <ellipse cx="80" cy="92" rx="22" ry="70" fill="#184d3d" transform="rotate(32 80 92)"/>
      <ellipse cx="-82" cy="-94" rx="20" ry="64" fill="#184d3d" transform="rotate(28 -82 -94)"/>
    </g>
  </g>
<g transform="translate(915 875) rotate(2) scale(0.76)">
    <g opacity="0.9">
      <path d="M0 0 C42 -80 96 -80 120 0 C92 72 36 78 0 0Z" fill="#f3ce72" opacity="0.85"/>
      <path d="M0 0 C-42 -76 -94 -72 -118 4 C-86 70 -34 76 0 0Z" fill="#f3ce72" opacity="0.72"/>
      <circle cx="0" cy="0" r="20" fill="#f9e6a1"/>
      <ellipse cx="80" cy="92" rx="22" ry="70" fill="#2f6f52" transform="rotate(32 80 92)"/>
      <ellipse cx="-82" cy="-94" rx="20" ry="64" fill="#2f6f52" transform="rotate(28 -82 -94)"/>
    </g>
  </g>
<g transform="translate(979 1382) rotate(-21) scale(0.8)">
    <g opacity="0.9">
      <path d="M0 0 C42 -80 96 -80 120 0 C92 72 36 78 0 0Z" fill="#f4b7a1" opacity="0.85"/>
      <path d="M0 0 C-42 -76 -94 -72 -118 4 C-86 70 -34 76 0 0Z" fill="#f4b7a1" opacity="0.72"/>
      <circle cx="0" cy="0" r="20" fill="#f9e6a1"/>
      <ellipse cx="80" cy="92" rx="22" ry="70" fill="#184d3d" transform="rotate(32 80 92)"/>
      <ellipse cx="-82" cy="-94" rx="20" ry="64" fill="#184d3d" transform="rotate(28 -82 -94)"/>
    </g>
  </g>
<g transform="translate(225 1239) rotate(-13) scale(0.68)">
    <g opacity="0.9">
      <path d="M0 0 C42 -80 96 -80 120 0 C92 72 36 78 0 0Z" fill="#f3ce72" opacity="0.85"/>
      <path d="M0 0 C-42 -76 -94 -72 -118 4 C-86 70 -34 76 0 0Z" fill="#f3ce72" opacity="0.72"/>
      <circle cx="0" cy="0" r="20" fill="#f9e6a1"/>
      <ellipse cx="80" cy="92" rx="22" ry="70" fill="#184d3d" transform="rotate(32 80 92)"/>
      <ellipse cx="-82" cy="-94" rx="20" ry="64" fill="#184d3d" transform="rotate(28 -82 -94)"/>
    </g>
  </g>
<g transform="translate(653 678) rotate(-33) scale(0.86)">
    <g opacity="0.9">
      <path d="M0 0 C42 -80 96 -80 120 0 C92 72 36 78 0 0Z" fill="#f4b7a1" opacity="0.85"/>
      <path d="M0 0 C-42 -76 -94 -72 -118 4 C-86 70 -34 76 0 0Z" fill="#f4b7a1" opacity="0.72"/>
      <circle cx="0" cy="0" r="20" fill="#f9e6a1"/>
      <ellipse cx="80" cy="92" rx="22" ry="70" fill="#2f6f52" transform="rotate(32 80 92)"/>
      <ellipse cx="-82" cy="-94" rx="20" ry="64" fill="#2f6f52" transform="rotate(28 -82 -94)"/>
    </g>
  </g>
<g transform="translate(58 1278) rotate(18) scale(0.88)">
    <g opacity="0.9">
      <path d="M0 0 C42 -80 96 -80 120 0 C92 72 36 78 0 0Z" fill="#f3ce72" opacity="0.85"/>
      <path d="M0 0 C-42 -76 -94 -72 -118 4 C-86 70 -34 76 0 0Z" fill="#f3ce72" opacity="0.72"/>
      <circle cx="0" cy="0" r="20" fill="#f9e6a1"/>
      <ellipse cx="80" cy="92" rx="22" ry="70" fill="#184d3d" transform="rotate(32 80 92)"/>
      <ellipse cx="-82" cy="-94" rx="20" ry="64" fill="#184d3d" transform="rotate(28 -82 -94)"/>
    </g>
  </g>
<g transform="translate(697 360) rotate(20) scale(0.93)">
    <g opacity="0.9">
      <path d="M0 0 C42 -80 96 -80 120 0 C92 72 36 78 0 0Z" fill="#f4b7a1" opacity="0.85"/>
      <path d="M0 0 C-42 -76 -94 -72 -118 4 C-86 70 -34 76 0 0Z" fill="#f4b7a1" opacity="0.72"/>
      <circle cx="0" cy="0" r="20" fill="#f9e6a1"/>
      <ellipse cx="80" cy="92" rx="22" ry="70" fill="#184d3d" transform="rotate(32 80 92)"/>
      <ellipse cx="-82" cy="-94" rx="20" ry="64" fill="#184d3d" transform="rotate(28 -82 -94)"/>
    </g>
  </g>
<g transform="translate(399 1893) rotate(26) scale(1.35)">
    <g opacity="0.9">
      <path d="M0 0 C42 -80 96 -80 120 0 C92 72 36 78 0 0Z" fill="#f3ce72" opacity="0.85"/>
      <path d="M0 0 C-42 -76 -94 -72 -118 4 C-86 70 -34 76 0 0Z" fill="#f3ce72" opacity="0.72"/>
      <circle cx="0" cy="0" r="20" fill="#f9e6a1"/>
      <ellipse cx="80" cy="92" rx="22" ry="70" fill="#2f6f52" transform="rotate(32 80 92)"/>
      <ellipse cx="-82" cy="-94" rx="20" ry="64" fill="#2f6f52" transform="rotate(28 -82 -94)"/>
    </g>
  </g>
<g transform="translate(104 198) rotate(-8) scale(0.55)">
    <g opacity="0.9">
      <path d="M0 0 C42 -80 96 -80 120 0 C92 72 36 78 0 0Z" fill="#f4b7a1" opacity="0.85"/>
      <path d="M0 0 C-42 -76 -94 -72 -118 4 C-86 70 -34 76 0 0Z" fill="#f4b7a1" opacity="0.72"/>
      <circle cx="0" cy="0" r="20" fill="#f9e6a1"/>
      <ellipse cx="80" cy="92" rx="22" ry="70" fill="#184d3d" transform="rotate(32 80 92)"/>
      <ellipse cx="-82" cy="-94" rx="20" ry="64" fill="#184d3d" transform="rotate(28 -82 -94)"/>
    </g>
  </g>
<g transform="translate(302 1141) rotate(-15) scale(1.45)">
    <g opacity="0.9">
      <path d="M0 0 C42 -80 96 -80 120 0 C92 72 36 78 0 0Z" fill="#f3ce72" opacity="0.85"/>
      <path d="M0 0 C-42 -76 -94 -72 -118 4 C-86 70 -34 76 0 0Z" fill="#f3ce72" opacity="0.72"/>
      <circle cx="0" cy="0" r="20" fill="#f9e6a1"/>
      <ellipse cx="80" cy="92" rx="22" ry="70" fill="#184d3d" transform="rotate(32 80 92)"/>
      <ellipse cx="-82" cy="-94" rx="20" ry="64" fill="#184d3d" transform="rotate(28 -82 -94)"/>
    </g>
  </g>
<g transform="translate(414 9) rotate(25) scale(1.33)">
    <g opacity="0.9">
      <path d="M0 0 C42 -80 96 -80 120 0 C92 72 36 78 0 0Z" fill="#f4b7a1" opacity="0.85"/>
      <path d="M0 0 C-42 -76 -94 -72 -118 4 C-86 70 -34 76 0 0Z" fill="#f4b7a1" opacity="0.72"/>
      <circle cx="0" cy="0" r="20" fill="#f9e6a1"/>
      <ellipse cx="80" cy="92" rx="22" ry="70" fill="#2f6f52" transform="rotate(32 80 92)"/>
      <ellipse cx="-82" cy="-94" rx="20" ry="64" fill="#2f6f52" transform="rotate(28 -82 -94)"/>
    </g>
  </g>
<g transform="translate(380 756) rotate(3) scale(0.9)">
    <g opacity="0.9">
      <path d="M0 0 C42 -80 96 -80 120 0 C92 72 36 78 0 0Z" fill="#f3ce72" opacity="0.85"/>
      <path d="M0 0 C-42 -76 -94 -72 -118 4 C-86 70 -34 76 0 0Z" fill="#f3ce72" opacity="0.72"/>
      <circle cx="0" cy="0" r="20" fill="#f9e6a1"/>
      <ellipse cx="80" cy="92" rx="22" ry="70" fill="#184d3d" transform="rotate(32 80 92)"/>
      <ellipse cx="-82" cy="-94" rx="20" ry="64" fill="#184d3d" transform="rotate(28 -82 -94)"/>
    </g>
  </g>
<g transform="translate(1462 1477) rotate(-33) scale(1.44)">
    <g opacity="0.9">
      <path d="M0 0 C42 -80 96 -80 120 0 C92 72 36 78 0 0Z" fill="#f4b7a1" opacity="0.85"/>
      <path d="M0 0 C-42 -76 -94 -72 -118 4 C-86 70 -34 76 0 0Z" fill="#f4b7a1" opacity="0.72"/>
      <circle cx="0" cy="0" r="20" fill="#f9e6a1"/>
      <ellipse cx="80" cy="92" rx="22" ry="70" fill="#184d3d" transform="rotate(32 80 92)"/>
      <ellipse cx="-82" cy="-94" rx="20" ry="64" fill="#184d3d" transform="rotate(28 -82 -94)"/>
    </g>
  </g>
<g transform="translate(870 1156) rotate(-20) scale(0.76)">
    <g opacity="0.9">
      <path d="M0 0 C42 -80 96 -80 120 0 C92 72 36 78 0 0Z" fill="#f3ce72" opacity="0.85"/>
      <path d="M0 0 C-42 -76 -94 -72 -118 4 C-86 70 -34 76 0 0Z" fill="#f3ce72" opacity="0.72"/>
      <circle cx="0" cy="0" r="20" fill="#f9e6a1"/>
      <ellipse cx="80" cy="92" rx="22" ry="70" fill="#2f6f52" transform="rotate(32 80 92)"/>
      <ellipse cx="-82" cy="-94" rx="20" ry="64" fill="#2f6f52" transform="rotate(28 -82 -94)"/>
    </g>
  </g>
<g transform="translate(1328 2072) rotate(28) scale(1.04)">
    <g opacity="0.9">
      <path d="M0 0 C42 -80 96 -80 120 0 C92 72 36 78 0 0Z" fill="#f4b7a1" opacity="0.85"/>
      <path d="M0 0 C-42 -76 -94 -72 -118 4 C-86 70 -34 76 0 0Z" fill="#f4b7a1" opacity="0.72"/>
      <circle cx="0" cy="0" r="20" fill="#f9e6a1"/>
      <ellipse cx="80" cy="92" rx="22" ry="70" fill="#184d3d" transform="rotate(32 80 92)"/>
      <ellipse cx="-82" cy="-94" rx="20" ry="64" fill="#184d3d" transform="rotate(28 -82 -94)"/>
    </g>
  </g>
<g transform="translate(1375 182) rotate(-1) scale(0.95)">
    <g opacity="0.9">
      <path d="M0 0 C42 -80 96 -80 120 0 C92 72 36 78 0 0Z" fill="#f3ce72" opacity="0.85"/>
      <path d="M0 0 C-42 -76 -94 -72 -118 4 C-86 70 -34 76 0 0Z" fill="#f3ce72" opacity="0.72"/>
      <circle cx="0" cy="0" r="20" fill="#f9e6a1"/>
      <ellipse cx="80" cy="92" rx="22" ry="70" fill="#184d3d" transform="rotate(32 80 92)"/>
      <ellipse cx="-82" cy="-94" rx="20" ry="64" fill="#184d3d" transform="rotate(28 -82 -94)"/>
    </g>
  </g>
<g transform="translate(1486 661) rotate(1) scale(1.09)">
    <g opacity="0.9">
      <path d="M0 0 C42 -80 96 -80 120 0 C92 72 36 78 0 0Z" fill="#f4b7a1" opacity="0.85"/>
      <path d="M0 0 C-42 -76 -94 -72 -118 4 C-86 70 -34 76 0 0Z" fill="#f4b7a1" opacity="0.72"/>
      <circle cx="0" cy="0" r="20" fill="#f9e6a1"/>
      <ellipse cx="80" cy="92" rx="22" ry="70" fill="#2f6f52" transform="rotate(32 80 92)"/>
      <ellipse cx="-82" cy="-94" rx="20" ry="64" fill="#2f6f52" transform="rotate(28 -82 -94)"/>
    </g>
  </g>
<g transform="translate(1085 1016) rotate(-17) scale(0.94)">
    <g opacity="0.9">
      <path d="M0 0 C42 -80 96 -80 120 0 C92 72 36 78 0 0Z" fill="#f3ce72" opacity="0.85"/>
      <path d="M0 0 C-42 -76 -94 -72 -118 4 C-86 70 -34 76 0 0Z" fill="#f3ce72" opacity="0.72"/>
      <circle cx="0" cy="0" r="20" fill="#f9e6a1"/>
      <ellipse cx="80" cy="92" rx="22" ry="70" fill="#184d3d" transform="rotate(32 80 92)"/>
      <ellipse cx="-82" cy="-94" rx="20" ry="64" fill="#184d3d" transform="rotate(28 -82 -94)"/>
    </g>
  </g>
<g transform="translate(1116 1075) rotate(-4) scale(1)">
    <g opacity="0.9">
      <path d="M0 0 C42 -80 96 -80 120 0 C92 72 36 78 0 0Z" fill="#f4b7a1" opacity="0.85"/>
      <path d="M0 0 C-42 -76 -94 -72 -118 4 C-86 70 -34 76 0 0Z" fill="#f4b7a1" opacity="0.72"/>
      <circle cx="0" cy="0" r="20" fill="#f9e6a1"/>
      <ellipse cx="80" cy="92" rx="22" ry="70" fill="#184d3d" transform="rotate(32 80 92)"/>
      <ellipse cx="-82" cy="-94" rx="20" ry="64" fill="#184d3d" transform="rotate(28 -82 -94)"/>
    </g>
  </g>
<g transform="translate(1265 364) rotate(9) scale(0.7)">
    <g opacity="0.9">
      <path d="M0 0 C42 -80 96 -80 120 0 C92 72 36 78 0 0Z" fill="#f3ce72" opacity="0.85"/>
      <path d="M0 0 C-42 -76 -94 -72 -118 4 C-86 70 -34 76 0 0Z" fill="#f3ce72" opacity="0.72"/>
      <circle cx="0" cy="0" r="20" fill="#f9e6a1"/>
      <ellipse cx="80" cy="92" rx="22" ry="70" fill="#2f6f52" transform="rotate(32 80 92)"/>
      <ellipse cx="-82" cy="-94" rx="20" ry="64" fill="#2f6f52" transform="rotate(28 -82 -94)"/>
    </g>
  </g>
<rect x="0" y="1450" width="1500" height="380" fill="#fffaf0" opacity="0.12"/>
<rect x="70" y="70" width="1360" height="1960" rx="28" fill="none" stroke="#3d6f67" stroke-width="5" opacity="0.34"/>
</svg>