<?xml version="1.0" encoding="UTF-8"?>
<svg xmlns="http://www.w3.org/2000/svg" width="1500" height="2100" viewBox="0 0 1500 2100" role="img" aria-label="CustomCard generated artwork layer" data-customcard-theme="photo-note">
<rect width="1500" height="2100" fill="#fbf7ef"/>

    <g data-customcard-texture="paper-grain" opacity="0.09">
      <path d="M240 420 C430 390 610 440 820 402 C1030 364 1160 412 1290 388" fill="none" stroke="#7d8b72" stroke-width="3"/>
      <path d="M260 1710 C470 1660 630 1730 830 1686 C1010 1646 1140 1690 1260 1660" fill="none" stroke="#7d8b72" stroke-width="3"/>
    </g>
  

    <g data-customcard-hero="sympathy-back">
      <path d="M298 1440 C446 1390 616 1428 752 1396 C944 1350 1098 1382 1232 1322" fill="none" stroke="#a98f68" stroke-width="7" stroke-linecap="round" opacity="0.28"/>
      <path d="M1050 1668 C1138 1580 1286 1580 1356 1678 C1274 1776 1136 1772 1050 1668Z" fill="#7d8b72" opacity="0.34"/>
      <ellipse cx="1168" cy="1740" rx="24" ry="78" fill="#9aa58d" opacity="0.3" transform="rotate(42 1168 1740)"/>
      <circle cx="292" cy="424" r="88" fill="#efe4d2" opacity="0.32"/>
    </g>
  



    <rect x="82" y="82" width="1336" height="1936" rx="22" fill="none" stroke="#7d8b72" stroke-width="7" opacity="0.52"/>
    <rect x="126" y="126" width="1248" height="1848" rx="14" fill="none" stroke="#a98f68" stroke-width="3" opacity="0.24"/>
  
</svg>