<?xml version="1.0" encoding="UTF-8"?>
<svg xmlns="http://www.w3.org/2000/svg" width="1500" height="2100" viewBox="0 0 1500 2100" role="img" aria-label="CustomCard generated artwork layer">
<rect width="1500" height="2100" fill="#fff7ed"/>
<g transform="translate(749 1100) rotate(8) scale(1.19)">
    <g opacity="0.9">
      <path d="M0 0 C42 -80 96 -80 120 0 C92 72 36 78 0 0Z" fill="#f4b7a1" opacity="0.85"/>
      <path d="M0 0 C-42 -76 -94 -72 -118 4 C-86 70 -34 76 0 0Z" fill="#f4b7a1" opacity="0.72"/>
      <circle cx="0" cy="0" r="20" fill="#f9e6a1"/>
      <ellipse cx="80" cy="92" rx="22" ry="70" fill="#2f6f52" transform="rotate(32 80 92)"/>
      <ellipse cx="-82" cy="-94" rx="20" ry="64" fill="#2f6f52" transform="rotate(28 -82 -94)"/>
    </g>
  </g>
<g transform="translate(785 1278) rotate(10) scale(0.94)">
    <g opacity="0.9">
      <path d="M0 0 C42 -80 96 -80 120 0 C92 72 36 78 0 0Z" fill="#f3ce72" opacity="0.85"/>
      <path d="M0 0 C-42 -76 -94 -72 -118 4 C-86 70 -34 76 0 0Z" fill="#f3ce72" opacity="0.72"/>
      <circle cx="0" cy="0" r="20" fill="#f9e6a1"/>
      <ellipse cx="80" cy="92" rx="22" ry="70" fill="#184d3d" transform="rotate(32 80 92)"/>
      <ellipse cx="-82" cy="-94" rx="20" ry="64" fill="#184d3d" transform="rotate(28 -82 -94)"/>
    </g>
  </g>
<g transform="translate(1219 1581) rotate(-35) scale(0.99)">
    <g opacity="0.9">
      <path d="M0 0 C42 -80 96 -80 120 0 C92 72 36 78 0 0Z" fill="#f4b7a1" opacity="0.85"/>
      <path d="M0 0 C-42 -76 -94 -72 -118 4 C-86 70 -34 76 0 0Z" fill="#f4b7a1" opacity="0.72"/>
      <circle cx="0" cy="0" r="20" fill="#f9e6a1"/>
      <ellipse cx="80" cy="92" rx="22" ry="70" fill="#184d3d" transform="rotate(32 80 92)"/>
      <ellipse cx="-82" cy="-94" rx="20" ry="64" fill="#184d3d" transform="rotate(28 -82 -94)"/>
    </g>
  </g>
<g transform="translate(716 1296) rotate(-10) scale(1.45)">
    <g opacity="0.9">
      <path d="M0 0 C42 -80 96 -80 120 0 C92 72 36 78 0 0Z" fill="#f3ce72" opacity="0.85"/>
      <path d="M0 0 C-42 -76 -94 -72 -118 4 C-86 70 -34 76 0 0Z" fill="#f3ce72" opacity="0.72"/>
      <circle cx="0" cy="0" r="20" fill="#f9e6a1"/>
      <ellipse cx="80" cy="92" rx="22" ry="70" fill="#2f6f52" transform="rotate(32 80 92)"/>
      <ellipse cx="-82" cy="-94" rx="20" ry="64" fill="#2f6f52" transform="rotate(28 -82 -94)"/>
    </g>
  </g>
<g transform="translate(936 1040) rotate(14) scale(1.36)">
    <g opacity="0.9">
      <path d="M0 0 C42 -80 96 -80 120 0 C92 72 36 78 0 0Z" fill="#f4b7a1" opacity="0.85"/>
      <path d="M0 0 C-42 -76 -94 -72 -118 4 C-86 70 -34 76 0 0Z" fill="#f4b7a1" opacity="0.72"/>
      <circle cx="0" cy="0" r="20" fill="#f9e6a1"/>
      <ellipse cx="80" cy="92" rx="22" ry="70" fill="#184d3d" transform="rotate(32 80 92)"/>
      <ellipse cx="-82" cy="-94" rx="20" ry="64" fill="#184d3d" transform="rotate(28 -82 -94)"/>
    </g>
  </g>
<g transform="translate(1 44) rotate(-19) scale(0.76)">
    <g opacity="0.9">
      <path d="M0 0 C42 -80 96 -80 120 0 C92 72 36 78 0 0Z" fill="#f3ce72" opacity="0.85"/>
      <path d="M0 0 C-42 -76 -94 -72 -118 4 C-86 70 -34 76 0 0Z" fill="#f3ce72" opacity="0.72"/>
      <circle cx="0" cy="0" r="20" fill="#f9e6a1"/>
      <ellipse cx="80" cy="92" rx="22" ry="70" fill="#184d3d" transform="rotate(32 80 92)"/>
      <ellipse cx="-82" cy="-94" rx="20" ry="64" fill="#184d3d" transform="rotate(28 -82 -94)"/>
    </g>
  </g>
<g transform="translate(1264 414) rotate(-5) scale(1.29)">
    <g opacity="0.9">
      <path d="M0 0 C42 -80 96 -80 120 0 C92 72 36 78 0 0Z" fill="#f4b7a1" opacity="0.85"/>
      <path d="M0 0 C-42 -76 -94 -72 -118 4 C-86 70 -34 76 0 0Z" fill="#f4b7a1" opacity="0.72"/>
      <circle cx="0" cy="0" r="20" fill="#f9e6a1"/>
      <ellipse cx="80" cy="92" rx="22" ry="70" fill="#2f6f52" transform="rotate(32 80 92)"/>
      <ellipse cx="-82" cy="-94" rx="20" ry="64" fill="#2f6f52" transform="rotate(28 -82 -94)"/>
    </g>
  </g>
<g transform="translate(1168 1852) rotate(14) scale(1.48)">
    <g opacity="0.9">
      <path d="M0 0 C42 -80 96 -80 120 0 C92 72 36 78 0 0Z" fill="#f3ce72" opacity="0.85"/>
      <path d="M0 0 C-42 -76 -94 -72 -118 4 C-86 70 -34 76 0 0Z" fill="#f3ce72" opacity="0.72"/>
      <circle cx="0" cy="0" r="20" fill="#f9e6a1"/>
      <ellipse cx="80" cy="92" rx="22" ry="70" fill="#184d3d" transform="rotate(32 80 92)"/>
      <ellipse cx="-82" cy="-94" rx="20" ry="64" fill="#184d3d" transform="rotate(28 -82 -94)"/>
    </g>
  </g>
<g transform="translate(829 1303) rotate(-7) scale(0.91)">
    <g opacity="0.9">
      <path d="M0 0 C42 -80 96 -80 120 0 C92 72 36 78 0 0Z" fill="#f4b7a1" opacity="0.85"/>
      <path d="M0 0 C-42 -76 -94 -72 -118 4 C-86 70 -34 76 0 0Z" fill="#f4b7a1" opacity="0.72"/>
      <circle cx="0" cy="0" r="20" fill="#f9e6a1"/>
      <ellipse cx="80" cy="92" rx="22" ry="70" fill="#184d3d" transform="rotate(32 80 92)"/>
      <ellipse cx="-82" cy="-94" rx="20" ry="64" fill="#184d3d" transform="rotate(28 -82 -94)"/>
    </g>
  </g>
<g transform="translate(511 1761) rotate(35) scale(1.32)">
    <g opacity="0.9">
      <path d="M0 0 C42 -80 96 -80 120 0 C92 72 36 78 0 0Z" fill="#f3ce72" opacity="0.85"/>
      <path d="M0 0 C-42 -76 -94 -72 -118 4 C-86 70 -34 76 0 0Z" fill="#f3ce72" opacity="0.72"/>
      <circle cx="0" cy="0" r="20" fill="#f9e6a1"/>
      <ellipse cx="80" cy="92" rx="22" ry="70" fill="#2f6f52" transform="rotate(32 80 92)"/>
      <ellipse cx="-82" cy="-94" rx="20" ry="64" fill="#2f6f52" transform="rotate(28 -82 -94)"/>
    </g>
  </g>
<g transform="translate(844 1892) rotate(-21) scale(1.21)">
    <g opacity="0.9">
      <path d="M0 0 C42 -80 96 -80 120 0 C92 72 36 78 0 0Z" fill="#f4b7a1" opacity="0.85"/>
      <path d="M0 0 C-42 -76 -94 -72 -118 4 C-86 70 -34 76 0 0Z" fill="#f4b7a1" opacity="0.72"/>
      <circle cx="0" cy="0" r="20" fill="#f9e6a1"/>
      <ellipse cx="80" cy="92" rx="22" ry="70" fill="#184d3d" transform="rotate(32 80 92)"/>
      <ellipse cx="-82" cy="-94" rx="20" ry="64" fill="#184d3d" transform="rotate(28 -82 -94)"/>
    </g>
  </g>
<g transform="translate(873 380) rotate(15) scale(0.79)">
    <g opacity="0.9">
      <path d="M0 0 C42 -80 96 -80 120 0 C92 72 36 78 0 0Z" fill="#f3ce72" opacity="0.85"/>
      <path d="M0 0 C-42 -76 -94 -72 -118 4 C-86 70 -34 76 0 0Z" fill="#f3ce72" opacity="0.72"/>
      <circle cx="0" cy="0" r="20" fill="#f9e6a1"/>
      <ellipse cx="80" cy="92" rx="22" ry="70" fill="#184d3d" transform="rotate(32 80 92)"/>
      <ellipse cx="-82" cy="-94" rx="20" ry="64" fill="#184d3d" transform="rotate(28 -82 -94)"/>
    </g>
  </g>
<g transform="translate(1263 961) rotate(-4) scale(1.11)">
    <g opacity="0.9">
      <path d="M0 0 C42 -80 96 -80 120 0 C92 72 36 78 0 0Z" fill="#f4b7a1" opacity="0.85"/>
      <path d="M0 0 C-42 -76 -94 -72 -118 4 C-86 70 -34 76 0 0Z" fill="#f4b7a1" opacity="0.72"/>
      <circle cx="0" cy="0" r="20" fill="#f9e6a1"/>
      <ellipse cx="80" cy="92" rx="22" ry="70" fill="#2f6f52" transform="rotate(32 80 92)"/>
      <ellipse cx="-82" cy="-94" rx="20" ry="64" fill="#2f6f52" transform="rotate(28 -82 -94)"/>
    </g>
  </g>
<g transform="translate(620 831) rotate(2) scale(1.13)">
    <g opacity="0.9">
      <path d="M0 0 C42 -80 96 -80 120 0 C92 72 36 78 0 0Z" fill="#f3ce72" opacity="0.85"/>
      <path d="M0 0 C-42 -76 -94 -72 -118 4 C-86 70 -34 76 0 0Z" fill="#f3ce72" opacity="0.72"/>
      <circle cx="0" cy="0" r="20" fill="#f9e6a1"/>
      <ellipse cx="80" cy="92" rx="22" ry="70" fill="#184d3d" transform="rotate(32 80 92)"/>
      <ellipse cx="-82" cy="-94" rx="20" ry="64" fill="#184d3d" transform="rotate(28 -82 -94)"/>
    </g>
  </g>
<g transform="translate(428 910) rotate(33) scale(0.94)">
    <g opacity="0.9">
      <path d="M0 0 C42 -80 96 -80 120 0 C92 72 36 78 0 0Z" fill="#f4b7a1" opacity="0.85"/>
      <path d="M0 0 C-42 -76 -94 -72 -118 4 C-86 70 -34 76 0 0Z" fill="#f4b7a1" opacity="0.72"/>
      <circle cx="0" cy="0" r="20" fill="#f9e6a1"/>
      <ellipse cx="80" cy="92" rx="22" ry="70" fill="#184d3d" transform="rotate(32 80 92)"/>
      <ellipse cx="-82" cy="-94" rx="20" ry="64" fill="#184d3d" transform="rotate(28 -82 -94)"/>
    </g>
  </g>
<g transform="translate(362 993) rotate(-5) scale(1.09)">
    <g opacity="0.9">
      <path d="M0 0 C42 -80 96 -80 120 0 C92 72 36 78 0 0Z" fill="#f3ce72" opacity="0.85"/>
      <path d="M0 0 C-42 -76 -94 -72 -118 4 C-86 70 -34 76 0 0Z" fill="#f3ce72" opacity="0.72"/>
      <circle cx="0" cy="0" r="20" fill="#f9e6a1"/>
      <ellipse cx="80" cy="92" rx="22" ry="70" fill="#2f6f52" transform="rotate(32 80 92)"/>
      <ellipse cx="-82" cy="-94" rx="20" ry="64" fill="#2f6f52" transform="rotate(28 -82 -94)"/>
    </g>
  </g>
<g transform="translate(1473 380) rotate(4) scale(0.94)">
    <g opacity="0.9">
      <path d="M0 0 C42 -80 96 -80 120 0 C92 72 36 78 0 0Z" fill="#f4b7a1" opacity="0.85"/>
      <path d="M0 0 C-42 -76 -94 -72 -118 4 C-86 70 -34 76 0 0Z" fill="#f4b7a1" opacity="0.72"/>
      <circle cx="0" cy="0" r="20" fill="#f9e6a1"/>
      <ellipse cx="80" cy="92" rx="22" ry="70" fill="#184d3d" transform="rotate(32 80 92)"/>
      <ellipse cx="-82" cy="-94" rx="20" ry="64" fill="#184d3d" transform="rotate(28 -82 -94)"/>
    </g>
  </g>
<g transform="translate(215 1278) rotate(-8) scale(1.48)">
    <g opacity="0.9">
      <path d="M0 0 C42 -80 96 -80 120 0 C92 72 36 78 0 0Z" fill="#f3ce72" opacity="0.85"/>
      <path d="M0 0 C-42 -76 -94 -72 -118 4 C-86 70 -34 76 0 0Z" fill="#f3ce72" opacity="0.72"/>
      <circle cx="0" cy="0" r="20" fill="#f9e6a1"/>
      <ellipse cx="80" cy="92" rx="22" ry="70" fill="#184d3d" transform="rotate(32 80 92)"/>
      <ellipse cx="-82" cy="-94" rx="20" ry="64" fill="#184d3d" transform="rotate(28 -82 -94)"/>
    </g>
  </g>
<g transform="translate(-46 271) rotate(32) scale(1.03)">
    <g opacity="0.9">
      <path d="M0 0 C42 -80 96 -80 120 0 C92 72 36 78 0 0Z" fill="#f4b7a1" opacity="0.85"/>
      <path d="M0 0 C-42 -76 -94 -72 -118 4 C-86 70 -34 76 0 0Z" fill="#f4b7a1" opacity="0.72"/>
      <circle cx="0" cy="0" r="20" fill="#f9e6a1"/>
      <ellipse cx="80" cy="92" rx="22" ry="70" fill="#2f6f52" transform="rotate(32 80 92)"/>
      <ellipse cx="-82" cy="-94" rx="20" ry="64" fill="#2f6f52" transform="rotate(28 -82 -94)"/>
    </g>
  </g>
<g transform="translate(1299 1995) rotate(15) scale(1.39)">
    <g opacity="0.9">
      <path d="M0 0 C42 -80 96 -80 120 0 C92 72 36 78 0 0Z" fill="#f3ce72" opacity="0.85"/>
      <path d="M0 0 C-42 -76 -94 -72 -118 4 C-86 70 -34 76 0 0Z" fill="#f3ce72" opacity="0.72"/>
      <circle cx="0" cy="0" r="20" fill="#f9e6a1"/>
      <ellipse cx="80" cy="92" rx="22" ry="70" fill="#184d3d" transform="rotate(32 80 92)"/>
      <ellipse cx="-82" cy="-94" rx="20" ry="64" fill="#184d3d" transform="rotate(28 -82 -94)"/>
    </g>
  </g>
<g transform="translate(-12 1711) rotate(-8) scale(1.02)">
    <g opacity="0.9">
      <path d="M0 0 C42 -80 96 -80 120 0 C92 72 36 78 0 0Z" fill="#f4b7a1" opacity="0.85"/>
      <path d="M0 0 C-42 -76 -94 -72 -118 4 C-86 70 -34 76 0 0Z" fill="#f4b7a1" opacity="0.72"/>
      <circle cx="0" cy="0" r="20" fill="#f9e6a1"/>
      <ellipse cx="80" cy="92" rx="22" ry="70" fill="#184d3d" transform="rotate(32 80 92)"/>
      <ellipse cx="-82" cy="-94" rx="20" ry="64" fill="#184d3d" transform="rotate(28 -82 -94)"/>
    </g>
  </g>
<g transform="translate(733 265) rotate(-26) scale(0.67)">
    <g opacity="0.9">
      <path d="M0 0 C42 -80 96 -80 120 0 C92 72 36 78 0 0Z" fill="#f3ce72" opacity="0.85"/>
      <path d="M0 0 C-42 -76 -94 -72 -118 4 C-86 70 -34 76 0 0Z" fill="#f3ce72" opacity="0.72"/>
      <circle cx="0" cy="0" r="20" fill="#f9e6a1"/>
      <ellipse cx="80" cy="92" rx="22" ry="70" fill="#2f6f52" transform="rotate(32 80 92)"/>
      <ellipse cx="-82" cy="-94" rx="20" ry="64" fill="#2f6f52" transform="rotate(28 -82 -94)"/>
    </g>
  </g>
<g transform="translate(191 1671) rotate(-21) scale(1.27)">
    <g opacity="0.9">
      <path d="M0 0 C42 -80 96 -80 120 0 C92 72 36 78 0 0Z" fill="#f4b7a1" opacity="0.85"/>
      <path d="M0 0 C-42 -76 -94 -72 -118 4 C-86 70 -34 76 0 0Z" fill="#f4b7a1" opacity="0.72"/>
      <circle cx="0" cy="0" r="20" fill="#f9e6a1"/>
      <ellipse cx="80" cy="92" rx="22" ry="70" fill="#184d3d" transform="rotate(32 80 92)"/>
      <ellipse cx="-82" cy="-94" rx="20" ry="64" fill="#184d3d" transform="rotate(28 -82 -94)"/>
    </g>
  </g>
<g transform="translate(414 1576) rotate(29) scale(1.27)">
    <g opacity="0.9">
      <path d="M0 0 C42 -80 96 -80 120 0 C92 72 36 78 0 0Z" fill="#f3ce72" opacity="0.85"/>
      <path d="M0 0 C-42 -76 -94 -72 -118 4 C-86 70 -34 76 0 0Z" fill="#f3ce72" opacity="0.72"/>
      <circle cx="0" cy="0" r="20" fill="#f9e6a1"/>
      <ellipse cx="80" cy="92" rx="22" ry="70" fill="#184d3d" transform="rotate(32 80 92)"/>
      <ellipse cx="-82" cy="-94" rx="20" ry="64" fill="#184d3d" transform="rotate(28 -82 -94)"/>
    </g>
  </g>
<g transform="translate(698 1986) rotate(16) scale(0.73)">
    <g opacity="0.9">
      <path d="M0 0 C42 -80 96 -80 120 0 C92 72 36 78 0 0Z" fill="#f4b7a1" opacity="0.85"/>
      <path d="M0 0 C-42 -76 -94 -72 -118 4 C-86 70 -34 76 0 0Z" fill="#f4b7a1" opacity="0.72"/>
      <circle cx="0" cy="0" r="20" fill="#f9e6a1"/>
      <ellipse cx="80" cy="92" rx="22" ry="70" fill="#2f6f52" transform="rotate(32 80 92)"/>
      <ellipse cx="-82" cy="-94" rx="20" ry="64" fill="#2f6f52" transform="rotate(28 -82 -94)"/>
    </g>
  </g>
<g transform="translate(582 143) rotate(-3) scale(0.97)">
    <g opacity="0.9">
      <path d="M0 0 C42 -80 96 -80 120 0 C92 72 36 78 0 0Z" fill="#f3ce72" opacity="0.85"/>
      <path d="M0 0 C-42 -76 -94 -72 -118 4 C-86 70 -34 76 0 0Z" fill="#f3ce72" opacity="0.72"/>
      <circle cx="0" cy="0" r="20" fill="#f9e6a1"/>
      <ellipse cx="80" cy="92" rx="22" ry="70" fill="#184d3d" transform="rotate(32 80 92)"/>
      <ellipse cx="-82" cy="-94" rx="20" ry="64" fill="#184d3d" transform="rotate(28 -82 -94)"/>
    </g>
  </g>
<g transform="translate(34 370) rotate(19) scale(0.72)">
    <g opacity="0.9">
      <path d="M0 0 C42 -80 96 -80 120 0 C92 72 36 78 0 0Z" fill="#f4b7a1" opacity="0.85"/>
      <path d="M0 0 C-42 -76 -94 -72 -118 4 C-86 70 -34 76 0 0Z" fill="#f4b7a1" opacity="0.72"/>
      <circle cx="0" cy="0" r="20" fill="#f9e6a1"/>
      <ellipse cx="80" cy="92" rx="22" ry="70" fill="#184d3d" transform="rotate(32 80 92)"/>
      <ellipse cx="-82" cy="-94" rx="20" ry="64" fill="#184d3d" transform="rotate(28 -82 -94)"/>
    </g>
  </g>
<g transform="translate(1418 65) rotate(5) scale(1.35)">
    <g opacity="0.9">
      <path d="M0 0 C42 -80 96 -80 120 0 C92 72 36 78 0 0Z" fill="#f3ce72" opacity="0.85"/>
      <path d="M0 0 C-42 -76 -94 -72 -118 4 C-86 70 -34 76 0 0Z" fill="#f3ce72" opacity="0.72"/>
      <circle cx="0" cy="0" r="20" fill="#f9e6a1"/>
      <ellipse cx="80" cy="92" rx="22" ry="70" fill="#2f6f52" transform="rotate(32 80 92)"/>
      <ellipse cx="-82" cy="-94" rx="20" ry="64" fill="#2f6f52" transform="rotate(28 -82 -94)"/>
    </g>
  </g>
<g transform="translate(881 1612) rotate(33) scale(0.58)">
    <g opacity="0.9">
      <path d="M0 0 C42 -80 96 -80 120 0 C92 72 36 78 0 0Z" fill="#f4b7a1" opacity="0.85"/>
      <path d="M0 0 C-42 -76 -94 -72 -118 4 C-86 70 -34 76 0 0Z" fill="#f4b7a1" opacity="0.72"/>
      <circle cx="0" cy="0" r="20" fill="#f9e6a1"/>
      <ellipse cx="80" cy="92" rx="22" ry="70" fill="#184d3d" transform="rotate(32 80 92)"/>
      <ellipse cx="-82" cy="-94" rx="20" ry="64" fill="#184d3d" transform="rotate(28 -82 -94)"/>
    </g>
  </g>
<g transform="translate(39 556) rotate(28) scale(1.1)">
    <g opacity="0.9">
      <path d="M0 0 C42 -80 96 -80 120 0 C92 72 36 78 0 0Z" fill="#f3ce72" opacity="0.85"/>
      <path d="M0 0 C-42 -76 -94 -72 -118 4 C-86 70 -34 76 0 0Z" fill="#f3ce72" opacity="0.72"/>
      <circle cx="0" cy="0" r="20" fill="#f9e6a1"/>
      <ellipse cx="80" cy="92" rx="22" ry="70" fill="#184d3d" transform="rotate(32 80 92)"/>
      <ellipse cx="-82" cy="-94" rx="20" ry="64" fill="#184d3d" transform="rotate(28 -82 -94)"/>
    </g>
  </g>
<g transform="translate(1101 -9) rotate(-32) scale(1.16)">
    <g opacity="0.9">
      <path d="M0 0 C42 -80 96 -80 120 0 C92 72 36 78 0 0Z" fill="#f4b7a1" opacity="0.85"/>
      <path d="M0 0 C-42 -76 -94 -72 -118 4 C-86 70 -34 76 0 0Z" fill="#f4b7a1" opacity="0.72"/>
      <circle cx="0" cy="0" r="20" fill="#f9e6a1"/>
      <ellipse cx="80" cy="92" rx="22" ry="70" fill="#2f6f52" transform="rotate(32 80 92)"/>
      <ellipse cx="-82" cy="-94" rx="20" ry="64" fill="#2f6f52" transform="rotate(28 -82 -94)"/>
    </g>
  </g>
<g transform="translate(801 596) rotate(-23) scale(1.37)">
    <g opacity="0.9">
      <path d="M0 0 C42 -80 96 -80 120 0 C92 72 36 78 0 0Z" fill="#f3ce72" opacity="0.85"/>
      <path d="M0 0 C-42 -76 -94 -72 -118 4 C-86 70 -34 76 0 0Z" fill="#f3ce72" opacity="0.72"/>
      <circle cx="0" cy="0" r="20" fill="#f9e6a1"/>
      <ellipse cx="80" cy="92" rx="22" ry="70" fill="#184d3d" transform="rotate(32 80 92)"/>
      <ellipse cx="-82" cy="-94" rx="20" ry="64" fill="#184d3d" transform="rotate(28 -82 -94)"/>
    </g>
  </g>
<g transform="translate(210 1536) rotate(5) scale(1.13)">
    <g opacity="0.9">
      <path d="M0 0 C42 -80 96 -80 120 0 C92 72 36 78 0 0Z" fill="#f4b7a1" opacity="0.85"/>
      <path d="M0 0 C-42 -76 -94 -72 -118 4 C-86 70 -34 76 0 0Z" fill="#f4b7a1" opacity="0.72"/>
      <circle cx="0" cy="0" r="20" fill="#f9e6a1"/>
      <ellipse cx="80" cy="92" rx="22" ry="70" fill="#184d3d" transform="rotate(32 80 92)"/>
      <ellipse cx="-82" cy="-94" rx="20" ry="64" fill="#184d3d" transform="rotate(28 -82 -94)"/>
    </g>
  </g>
<g transform="translate(1361 1510) rotate(-19) scale(1.16)">
    <g opacity="0.9">
      <path d="M0 0 C42 -80 96 -80 120 0 C92 72 36 78 0 0Z" fill="#f3ce72" opacity="0.85"/>
      <path d="M0 0 C-42 -76 -94 -72 -118 4 C-86 70 -34 76 0 0Z" fill="#f3ce72" opacity="0.72"/>
      <circle cx="0" cy="0" r="20" fill="#f9e6a1"/>
      <ellipse cx="80" cy="92" rx="22" ry="70" fill="#2f6f52" transform="rotate(32 80 92)"/>
      <ellipse cx="-82" cy="-94" rx="20" ry="64" fill="#2f6f52" transform="rotate(28 -82 -94)"/>
    </g>
  </g>
<g transform="translate(111 1370) rotate(-9) scale(0.55)">
    <g opacity="0.9">
      <path d="M0 0 C42 -80 96 -80 120 0 C92 72 36 78 0 0Z" fill="#f4b7a1" opacity="0.85"/>
      <path d="M0 0 C-42 -76 -94 -72 -118 4 C-86 70 -34 76 0 0Z" fill="#f4b7a1" opacity="0.72"/>
      <circle cx="0" cy="0" r="20" fill="#f9e6a1"/>
      <ellipse cx="80" cy="92" rx="22" ry="70" fill="#184d3d" transform="rotate(32 80 92)"/>
      <ellipse cx="-82" cy="-94" rx="20" ry="64" fill="#184d3d" transform="rotate(28 -82 -94)"/>
    </g>
  </g>
<g transform="translate(1475 796) rotate(-21) scale(0.89)">
    <g opacity="0.9">
      <path d="M0 0 C42 -80 96 -80 120 0 C92 72 36 78 0 0Z" fill="#f3ce72" opacity="0.85"/>
      <path d="M0 0 C-42 -76 -94 -72 -118 4 C-86 70 -34 76 0 0Z" fill="#f3ce72" opacity="0.72"/>
      <circle cx="0" cy="0" r="20" fill="#f9e6a1"/>
      <ellipse cx="80" cy="92" rx="22" ry="70" fill="#184d3d" transform="rotate(32 80 92)"/>
      <ellipse cx="-82" cy="-94" rx="20" ry="64" fill="#184d3d" transform="rotate(28 -82 -94)"/>
    </g>
  </g>
<g transform="translate(-8 901) rotate(-12) scale(1.22)">
    <g opacity="0.9">
      <path d="M0 0 C42 -80 96 -80 120 0 C92 72 36 78 0 0Z" fill="#f4b7a1" opacity="0.85"/>
      <path d="M0 0 C-42 -76 -94 -72 -118 4 C-86 70 -34 76 0 0Z" fill="#f4b7a1" opacity="0.72"/>
      <circle cx="0" cy="0" r="20" fill="#f9e6a1"/>
      <ellipse cx="80" cy="92" rx="22" ry="70" fill="#2f6f52" transform="rotate(32 80 92)"/>
      <ellipse cx="-82" cy="-94" rx="20" ry="64" fill="#2f6f52" transform="rotate(28 -82 -94)"/>
    </g>
  </g>
<g transform="translate(770 1990) rotate(-11) scale(0.76)">
    <g opacity="0.9">
      <path d="M0 0 C42 -80 96 -80 120 0 C92 72 36 78 0 0Z" fill="#f3ce72" opacity="0.85"/>
      <path d="M0 0 C-42 -76 -94 -72 -118 4 C-86 70 -34 76 0 0Z" fill="#f3ce72" opacity="0.72"/>
      <circle cx="0" cy="0" r="20" fill="#f9e6a1"/>
      <ellipse cx="80" cy="92" rx="22" ry="70" fill="#184d3d" transform="rotate(32 80 92)"/>
      <ellipse cx="-82" cy="-94" rx="20" ry="64" fill="#184d3d" transform="rotate(28 -82 -94)"/>
    </g>
  </g>
<g transform="translate(900 1782) rotate(-11) scale(0.96)">
    <g opacity="0.9">
      <path d="M0 0 C42 -80 96 -80 120 0 C92 72 36 78 0 0Z" fill="#f4b7a1" opacity="0.85"/>
      <path d="M0 0 C-42 -76 -94 -72 -118 4 C-86 70 -34 76 0 0Z" fill="#f4b7a1" opacity="0.72"/>
      <circle cx="0" cy="0" r="20" fill="#f9e6a1"/>
      <ellipse cx="80" cy="92" rx="22" ry="70" fill="#184d3d" transform="rotate(32 80 92)"/>
      <ellipse cx="-82" cy="-94" rx="20" ry="64" fill="#184d3d" transform="rotate(28 -82 -94)"/>
    </g>
  </g>
<g transform="translate(1122 380) rotate(-3) scale(1.21)">
    <g opacity="0.9">
      <path d="M0 0 C42 -80 96 -80 120 0 C92 72 36 78 0 0Z" fill="#f3ce72" opacity="0.85"/>
      <path d="M0 0 C-42 -76 -94 -72 -118 4 C-86 70 -34 76 0 0Z" fill="#f3ce72" opacity="0.72"/>
      <circle cx="0" cy="0" r="20" fill="#f9e6a1"/>
      <ellipse cx="80" cy="92" rx="22" ry="70" fill="#2f6f52" transform="rotate(32 80 92)"/>
      <ellipse cx="-82" cy="-94" rx="20" ry="64" fill="#2f6f52" transform="rotate(28 -82 -94)"/>
    </g>
  </g>
<g transform="translate(914 1600) rotate(19) scale(0.93)">
    <g opacity="0.9">
      <path d="M0 0 C42 -80 96 -80 120 0 C92 72 36 78 0 0Z" fill="#f4b7a1" opacity="0.85"/>
      <path d="M0 0 C-42 -76 -94 -72 -118 4 C-86 70 -34 76 0 0Z" fill="#f4b7a1" opacity="0.72"/>
      <circle cx="0" cy="0" r="20" fill="#f9e6a1"/>
      <ellipse cx="80" cy="92" rx="22" ry="70" fill="#184d3d" transform="rotate(32 80 92)"/>
      <ellipse cx="-82" cy="-94" rx="20" ry="64" fill="#184d3d" transform="rotate(28 -82 -94)"/>
    </g>
  </g>
<g transform="translate(726 2058) rotate(21) scale(1.5)">
    <g opacity="0.9">
      <path d="M0 0 C42 -80 96 -80 120 0 C92 72 36 78 0 0Z" fill="#f3ce72" opacity="0.85"/>
      <path d="M0 0 C-42 -76 -94 -72 -118 4 C-86 70 -34 76 0 0Z" fill="#f3ce72" opacity="0.72"/>
      <circle cx="0" cy="0" r="20" fill="#f9e6a1"/>
      <ellipse cx="80" cy="92" rx="22" ry="70" fill="#184d3d" transform="rotate(32 80 92)"/>
      <ellipse cx="-82" cy="-94" rx="20" ry="64" fill="#184d3d" transform="rotate(28 -82 -94)"/>
    </g>
  </g>
<rect x="0" y="1180" width="1500" height="520" fill="#fffaf0" opacity="0.18"/>
<rect x="70" y="70" width="1360" height="1960" rx="28" fill="none" stroke="#2f6f52" stroke-width="5" opacity="0.34"/>
</svg>