<?xml version="1.0" encoding="UTF-8"?>
<svg xmlns="http://www.w3.org/2000/svg" width="1500" height="2100" viewBox="0 0 1500 2100" role="img" aria-label="CustomCard generated artwork layer" data-customcard-theme="citrus">
<rect width="1500" height="2100" fill="#0f3d3f"/>


    <g data-customcard-hero="citrus" opacity="0.72">
      <path d="M1010 1710 C1120 1570 1246 1514 1402 1458" fill="none" stroke="#f6b53f" stroke-width="14" stroke-linecap="round"/>
      <circle cx="1156" cy="1564" r="92" fill="#f6b53f" stroke="#fff8dc" stroke-width="10"/>
      <path d="M1156 1482 V1646 M1074 1564 H1238 M1098 1506 L1214 1622 M1214 1506 L1098 1622" stroke="#fff8dc" stroke-width="7" opacity="0.86"/>
      <ellipse cx="1280" cy="1454" rx="34" ry="98" fill="#d6d7a3" transform="rotate(46 1280 1454)"/>
      <ellipse cx="1052" cy="1680" rx="30" ry="84" fill="#1f7a68" transform="rotate(-42 1052 1680)"/>
    </g>
  
<g transform="translate(-88 1153) rotate(3) scale(0.71)">
    <g opacity="0.92">
      <circle cx="0" cy="0" r="58" fill="#f6b53f" stroke="#fff8dc" stroke-width="8"/>
      <line x1="0" y1="0" x2="52" y2="0" stroke="#fff8dc" stroke-width="5"/><line x1="0" y1="0" x2="42.068883707497264" y2="30.564833119208604" stroke="#fff8dc" stroke-width="5"/><line x1="0" y1="0" x2="16.068883707497267" y2="49.45493884734798" stroke="#fff8dc" stroke-width="5"/><line x1="0" y1="0" x2="-16.06888370749726" y2="49.45493884734799" stroke="#fff8dc" stroke-width="5"/><line x1="0" y1="0" x2="-42.068883707497264" y2="30.564833119208608" stroke="#fff8dc" stroke-width="5"/><line x1="0" y1="0" x2="-52" y2="6.368163355566236e-15" stroke="#fff8dc" stroke-width="5"/><line x1="0" y1="0" x2="-42.068883707497264" y2="-30.564833119208597" stroke="#fff8dc" stroke-width="5"/><line x1="0" y1="0" x2="-16.068883707497275" y2="-49.45493884734798" stroke="#fff8dc" stroke-width="5"/><line x1="0" y1="0" x2="16.068883707497257" y2="-49.45493884734799" stroke="#fff8dc" stroke-width="5"/><line x1="0" y1="0" x2="42.068883707497264" y2="-30.564833119208615" stroke="#fff8dc" stroke-width="5"/>
      <ellipse cx="96" cy="-50" rx="24" ry="62" fill="#1f7a68" transform="rotate(35 96 -50)"/>
      <ellipse cx="-92" cy="54" rx="22" ry="58" fill="#1f7a68" transform="rotate(-42 -92 54)"/>
    </g>
  </g>
<g transform="translate(-31 1514) rotate(-16) scale(1)">
    <g opacity="0.92">
      <circle cx="0" cy="0" r="58" fill="#fce7a3" stroke="#fff8dc" stroke-width="8"/>
      <line x1="0" y1="0" x2="52" y2="0" stroke="#fff8dc" stroke-width="5"/><line x1="0" y1="0" x2="42.068883707497264" y2="30.564833119208604" stroke="#fff8dc" stroke-width="5"/><line x1="0" y1="0" x2="16.068883707497267" y2="49.45493884734798" stroke="#fff8dc" stroke-width="5"/><line x1="0" y1="0" x2="-16.06888370749726" y2="49.45493884734799" stroke="#fff8dc" stroke-width="5"/><line x1="0" y1="0" x2="-42.068883707497264" y2="30.564833119208608" stroke="#fff8dc" stroke-width="5"/><line x1="0" y1="0" x2="-52" y2="6.368163355566236e-15" stroke="#fff8dc" stroke-width="5"/><line x1="0" y1="0" x2="-42.068883707497264" y2="-30.564833119208597" stroke="#fff8dc" stroke-width="5"/><line x1="0" y1="0" x2="-16.068883707497275" y2="-49.45493884734798" stroke="#fff8dc" stroke-width="5"/><line x1="0" y1="0" x2="16.068883707497257" y2="-49.45493884734799" stroke="#fff8dc" stroke-width="5"/><line x1="0" y1="0" x2="42.068883707497264" y2="-30.564833119208615" stroke="#fff8dc" stroke-width="5"/>
      <ellipse cx="96" cy="-50" rx="24" ry="62" fill="#d6d7a3" transform="rotate(35 96 -50)"/>
      <ellipse cx="-92" cy="54" rx="22" ry="58" fill="#d6d7a3" transform="rotate(-42 -92 54)"/>
    </g>
  </g>
<g transform="translate(-82 1401) rotate(-12) scale(0.51)">
    <g opacity="0.92">
      <circle cx="0" cy="0" r="58" fill="#f7f2df" stroke="#fff8dc" stroke-width="8"/>
      <line x1="0" y1="0" x2="52" y2="0" stroke="#fff8dc" stroke-width="5"/><line x1="0" y1="0" x2="42.068883707497264" y2="30.564833119208604" stroke="#fff8dc" stroke-width="5"/><line x1="0" y1="0" x2="16.068883707497267" y2="49.45493884734798" stroke="#fff8dc" stroke-width="5"/><line x1="0" y1="0" x2="-16.06888370749726" y2="49.45493884734799" stroke="#fff8dc" stroke-width="5"/><line x1="0" y1="0" x2="-42.068883707497264" y2="30.564833119208608" stroke="#fff8dc" stroke-width="5"/><line x1="0" y1="0" x2="-52" y2="6.368163355566236e-15" stroke="#fff8dc" stroke-width="5"/><line x1="0" y1="0" x2="-42.068883707497264" y2="-30.564833119208597" stroke="#fff8dc" stroke-width="5"/><line x1="0" y1="0" x2="-16.068883707497275" y2="-49.45493884734798" stroke="#fff8dc" stroke-width="5"/><line x1="0" y1="0" x2="16.068883707497257" y2="-49.45493884734799" stroke="#fff8dc" stroke-width="5"/><line x1="0" y1="0" x2="42.068883707497264" y2="-30.564833119208615" stroke="#fff8dc" stroke-width="5"/>
      <ellipse cx="96" cy="-50" rx="24" ry="62" fill="#1f7a68" transform="rotate(35 96 -50)"/>
      <ellipse cx="-92" cy="54" rx="22" ry="58" fill="#1f7a68" transform="rotate(-42 -92 54)"/>
    </g>
  </g>
<g transform="translate(213 2114) rotate(-17) scale(0.85)">
    <g opacity="0.92">
      <circle cx="0" cy="0" r="58" fill="#f6b53f" stroke="#fff8dc" stroke-width="8"/>
      <line x1="0" y1="0" x2="52" y2="0" stroke="#fff8dc" stroke-width="5"/><line x1="0" y1="0" x2="42.068883707497264" y2="30.564833119208604" stroke="#fff8dc" stroke-width="5"/><line x1="0" y1="0" x2="16.068883707497267" y2="49.45493884734798" stroke="#fff8dc" stroke-width="5"/><line x1="0" y1="0" x2="-16.06888370749726" y2="49.45493884734799" stroke="#fff8dc" stroke-width="5"/><line x1="0" y1="0" x2="-42.068883707497264" y2="30.564833119208608" stroke="#fff8dc" stroke-width="5"/><line x1="0" y1="0" x2="-52" y2="6.368163355566236e-15" stroke="#fff8dc" stroke-width="5"/><line x1="0" y1="0" x2="-42.068883707497264" y2="-30.564833119208597" stroke="#fff8dc" stroke-width="5"/><line x1="0" y1="0" x2="-16.068883707497275" y2="-49.45493884734798" stroke="#fff8dc" stroke-width="5"/><line x1="0" y1="0" x2="16.068883707497257" y2="-49.45493884734799" stroke="#fff8dc" stroke-width="5"/><line x1="0" y1="0" x2="42.068883707497264" y2="-30.564833119208615" stroke="#fff8dc" stroke-width="5"/>
      <ellipse cx="96" cy="-50" rx="24" ry="62" fill="#d6d7a3" transform="rotate(35 96 -50)"/>
      <ellipse cx="-92" cy="54" rx="22" ry="58" fill="#d6d7a3" transform="rotate(-42 -92 54)"/>
    </g>
  </g>
<g transform="translate(-109 38) rotate(7) scale(0.73)">
    <g opacity="0.92">
      <circle cx="0" cy="0" r="58" fill="#fce7a3" stroke="#fff8dc" stroke-width="8"/>
      <line x1="0" y1="0" x2="52" y2="0" stroke="#fff8dc" stroke-width="5"/><line x1="0" y1="0" x2="42.068883707497264" y2="30.564833119208604" stroke="#fff8dc" stroke-width="5"/><line x1="0" y1="0" x2="16.068883707497267" y2="49.45493884734798" stroke="#fff8dc" stroke-width="5"/><line x1="0" y1="0" x2="-16.06888370749726" y2="49.45493884734799" stroke="#fff8dc" stroke-width="5"/><line x1="0" y1="0" x2="-42.068883707497264" y2="30.564833119208608" stroke="#fff8dc" stroke-width="5"/><line x1="0" y1="0" x2="-52" y2="6.368163355566236e-15" stroke="#fff8dc" stroke-width="5"/><line x1="0" y1="0" x2="-42.068883707497264" y2="-30.564833119208597" stroke="#fff8dc" stroke-width="5"/><line x1="0" y1="0" x2="-16.068883707497275" y2="-49.45493884734798" stroke="#fff8dc" stroke-width="5"/><line x1="0" y1="0" x2="16.068883707497257" y2="-49.45493884734799" stroke="#fff8dc" stroke-width="5"/><line x1="0" y1="0" x2="42.068883707497264" y2="-30.564833119208615" stroke="#fff8dc" stroke-width="5"/>
      <ellipse cx="96" cy="-50" rx="24" ry="62" fill="#1f7a68" transform="rotate(35 96 -50)"/>
      <ellipse cx="-92" cy="54" rx="22" ry="58" fill="#1f7a68" transform="rotate(-42 -92 54)"/>
    </g>
  </g>
<g transform="translate(1297 2210) rotate(-14) scale(1.06)">
    <g opacity="0.92">
      <circle cx="0" cy="0" r="58" fill="#f7f2df" stroke="#fff8dc" stroke-width="8"/>
      <line x1="0" y1="0" x2="52" y2="0" stroke="#fff8dc" stroke-width="5"/><line x1="0" y1="0" x2="42.068883707497264" y2="30.564833119208604" stroke="#fff8dc" stroke-width="5"/><line x1="0" y1="0" x2="16.068883707497267" y2="49.45493884734798" stroke="#fff8dc" stroke-width="5"/><line x1="0" y1="0" x2="-16.06888370749726" y2="49.45493884734799" stroke="#fff8dc" stroke-width="5"/><line x1="0" y1="0" x2="-42.068883707497264" y2="30.564833119208608" stroke="#fff8dc" stroke-width="5"/><line x1="0" y1="0" x2="-52" y2="6.368163355566236e-15" stroke="#fff8dc" stroke-width="5"/><line x1="0" y1="0" x2="-42.068883707497264" y2="-30.564833119208597" stroke="#fff8dc" stroke-width="5"/><line x1="0" y1="0" x2="-16.068883707497275" y2="-49.45493884734798" stroke="#fff8dc" stroke-width="5"/><line x1="0" y1="0" x2="16.068883707497257" y2="-49.45493884734799" stroke="#fff8dc" stroke-width="5"/><line x1="0" y1="0" x2="42.068883707497264" y2="-30.564833119208615" stroke="#fff8dc" stroke-width="5"/>
      <ellipse cx="96" cy="-50" rx="24" ry="62" fill="#d6d7a3" transform="rotate(35 96 -50)"/>
      <ellipse cx="-92" cy="54" rx="22" ry="58" fill="#d6d7a3" transform="rotate(-42 -92 54)"/>
    </g>
  </g>
<g transform="translate(1490 851) rotate(-1) scale(0.5)">
    <g opacity="0.92">
      <circle cx="0" cy="0" r="58" fill="#f6b53f" stroke="#fff8dc" stroke-width="8"/>
      <line x1="0" y1="0" x2="52" y2="0" stroke="#fff8dc" stroke-width="5"/><line x1="0" y1="0" x2="42.068883707497264" y2="30.564833119208604" stroke="#fff8dc" stroke-width="5"/><line x1="0" y1="0" x2="16.068883707497267" y2="49.45493884734798" stroke="#fff8dc" stroke-width="5"/><line x1="0" y1="0" x2="-16.06888370749726" y2="49.45493884734799" stroke="#fff8dc" stroke-width="5"/><line x1="0" y1="0" x2="-42.068883707497264" y2="30.564833119208608" stroke="#fff8dc" stroke-width="5"/><line x1="0" y1="0" x2="-52" y2="6.368163355566236e-15" stroke="#fff8dc" stroke-width="5"/><line x1="0" y1="0" x2="-42.068883707497264" y2="-30.564833119208597" stroke="#fff8dc" stroke-width="5"/><line x1="0" y1="0" x2="-16.068883707497275" y2="-49.45493884734798" stroke="#fff8dc" stroke-width="5"/><line x1="0" y1="0" x2="16.068883707497257" y2="-49.45493884734799" stroke="#fff8dc" stroke-width="5"/><line x1="0" y1="0" x2="42.068883707497264" y2="-30.564833119208615" stroke="#fff8dc" stroke-width="5"/>
      <ellipse cx="96" cy="-50" rx="24" ry="62" fill="#1f7a68" transform="rotate(35 96 -50)"/>
      <ellipse cx="-92" cy="54" rx="22" ry="58" fill="#1f7a68" transform="rotate(-42 -92 54)"/>
    </g>
  </g>
<g transform="translate(1584 1918) rotate(-11) scale(0.55)">
    <g opacity="0.92">
      <circle cx="0" cy="0" r="58" fill="#fce7a3" stroke="#fff8dc" stroke-width="8"/>
      <line x1="0" y1="0" x2="52" y2="0" stroke="#fff8dc" stroke-width="5"/><line x1="0" y1="0" x2="42.068883707497264" y2="30.564833119208604" stroke="#fff8dc" stroke-width="5"/><line x1="0" y1="0" x2="16.068883707497267" y2="49.45493884734798" stroke="#fff8dc" stroke-width="5"/><line x1="0" y1="0" x2="-16.06888370749726" y2="49.45493884734799" stroke="#fff8dc" stroke-width="5"/><line x1="0" y1="0" x2="-42.068883707497264" y2="30.564833119208608" stroke="#fff8dc" stroke-width="5"/><line x1="0" y1="0" x2="-52" y2="6.368163355566236e-15" stroke="#fff8dc" stroke-width="5"/><line x1="0" y1="0" x2="-42.068883707497264" y2="-30.564833119208597" stroke="#fff8dc" stroke-width="5"/><line x1="0" y1="0" x2="-16.068883707497275" y2="-49.45493884734798" stroke="#fff8dc" stroke-width="5"/><line x1="0" y1="0" x2="16.068883707497257" y2="-49.45493884734799" stroke="#fff8dc" stroke-width="5"/><line x1="0" y1="0" x2="42.068883707497264" y2="-30.564833119208615" stroke="#fff8dc" stroke-width="5"/>
      <ellipse cx="96" cy="-50" rx="24" ry="62" fill="#d6d7a3" transform="rotate(35 96 -50)"/>
      <ellipse cx="-92" cy="54" rx="22" ry="58" fill="#d6d7a3" transform="rotate(-42 -92 54)"/>
    </g>
  </g>
<g transform="translate(-100 227) rotate(-22) scale(0.48)">
    <g opacity="0.92">
      <circle cx="0" cy="0" r="58" fill="#f7f2df" stroke="#fff8dc" stroke-width="8"/>
      <line x1="0" y1="0" x2="52" y2="0" stroke="#fff8dc" stroke-width="5"/><line x1="0" y1="0" x2="42.068883707497264" y2="30.564833119208604" stroke="#fff8dc" stroke-width="5"/><line x1="0" y1="0" x2="16.068883707497267" y2="49.45493884734798" stroke="#fff8dc" stroke-width="5"/><line x1="0" y1="0" x2="-16.06888370749726" y2="49.45493884734799" stroke="#fff8dc" stroke-width="5"/><line x1="0" y1="0" x2="-42.068883707497264" y2="30.564833119208608" stroke="#fff8dc" stroke-width="5"/><line x1="0" y1="0" x2="-52" y2="6.368163355566236e-15" stroke="#fff8dc" stroke-width="5"/><line x1="0" y1="0" x2="-42.068883707497264" y2="-30.564833119208597" stroke="#fff8dc" stroke-width="5"/><line x1="0" y1="0" x2="-16.068883707497275" y2="-49.45493884734798" stroke="#fff8dc" stroke-width="5"/><line x1="0" y1="0" x2="16.068883707497257" y2="-49.45493884734799" stroke="#fff8dc" stroke-width="5"/><line x1="0" y1="0" x2="42.068883707497264" y2="-30.564833119208615" stroke="#fff8dc" stroke-width="5"/>
      <ellipse cx="96" cy="-50" rx="24" ry="62" fill="#1f7a68" transform="rotate(35 96 -50)"/>
      <ellipse cx="-92" cy="54" rx="22" ry="58" fill="#1f7a68" transform="rotate(-42 -92 54)"/>
    </g>
  </g>
<g transform="translate(-114 2167) rotate(-15) scale(1.13)">
    <g opacity="0.92">
      <circle cx="0" cy="0" r="58" fill="#f6b53f" stroke="#fff8dc" stroke-width="8"/>
      <line x1="0" y1="0" x2="52" y2="0" stroke="#fff8dc" stroke-width="5"/><line x1="0" y1="0" x2="42.068883707497264" y2="30.564833119208604" stroke="#fff8dc" stroke-width="5"/><line x1="0" y1="0" x2="16.068883707497267" y2="49.45493884734798" stroke="#fff8dc" stroke-width="5"/><line x1="0" y1="0" x2="-16.06888370749726" y2="49.45493884734799" stroke="#fff8dc" stroke-width="5"/><line x1="0" y1="0" x2="-42.068883707497264" y2="30.564833119208608" stroke="#fff8dc" stroke-width="5"/><line x1="0" y1="0" x2="-52" y2="6.368163355566236e-15" stroke="#fff8dc" stroke-width="5"/><line x1="0" y1="0" x2="-42.068883707497264" y2="-30.564833119208597" stroke="#fff8dc" stroke-width="5"/><line x1="0" y1="0" x2="-16.068883707497275" y2="-49.45493884734798" stroke="#fff8dc" stroke-width="5"/><line x1="0" y1="0" x2="16.068883707497257" y2="-49.45493884734799" stroke="#fff8dc" stroke-width="5"/><line x1="0" y1="0" x2="42.068883707497264" y2="-30.564833119208615" stroke="#fff8dc" stroke-width="5"/>
      <ellipse cx="96" cy="-50" rx="24" ry="62" fill="#d6d7a3" transform="rotate(35 96 -50)"/>
      <ellipse cx="-92" cy="54" rx="22" ry="58" fill="#d6d7a3" transform="rotate(-42 -92 54)"/>
    </g>
  </g>
<g transform="translate(1600 888) rotate(-11) scale(1.06)">
    <g opacity="0.92">
      <circle cx="0" cy="0" r="58" fill="#fce7a3" stroke="#fff8dc" stroke-width="8"/>
      <line x1="0" y1="0" x2="52" y2="0" stroke="#fff8dc" stroke-width="5"/><line x1="0" y1="0" x2="42.068883707497264" y2="30.564833119208604" stroke="#fff8dc" stroke-width="5"/><line x1="0" y1="0" x2="16.068883707497267" y2="49.45493884734798" stroke="#fff8dc" stroke-width="5"/><line x1="0" y1="0" x2="-16.06888370749726" y2="49.45493884734799" stroke="#fff8dc" stroke-width="5"/><line x1="0" y1="0" x2="-42.068883707497264" y2="30.564833119208608" stroke="#fff8dc" stroke-width="5"/><line x1="0" y1="0" x2="-52" y2="6.368163355566236e-15" stroke="#fff8dc" stroke-width="5"/><line x1="0" y1="0" x2="-42.068883707497264" y2="-30.564833119208597" stroke="#fff8dc" stroke-width="5"/><line x1="0" y1="0" x2="-16.068883707497275" y2="-49.45493884734798" stroke="#fff8dc" stroke-width="5"/><line x1="0" y1="0" x2="16.068883707497257" y2="-49.45493884734799" stroke="#fff8dc" stroke-width="5"/><line x1="0" y1="0" x2="42.068883707497264" y2="-30.564833119208615" stroke="#fff8dc" stroke-width="5"/>
      <ellipse cx="96" cy="-50" rx="24" ry="62" fill="#1f7a68" transform="rotate(35 96 -50)"/>
      <ellipse cx="-92" cy="54" rx="22" ry="58" fill="#1f7a68" transform="rotate(-42 -92 54)"/>
    </g>
  </g>
<g transform="translate(192 678) rotate(-21) scale(1.16)">
    <g opacity="0.92">
      <circle cx="0" cy="0" r="58" fill="#f7f2df" stroke="#fff8dc" stroke-width="8"/>
      <line x1="0" y1="0" x2="52" y2="0" stroke="#fff8dc" stroke-width="5"/><line x1="0" y1="0" x2="42.068883707497264" y2="30.564833119208604" stroke="#fff8dc" stroke-width="5"/><line x1="0" y1="0" x2="16.068883707497267" y2="49.45493884734798" stroke="#fff8dc" stroke-width="5"/><line x1="0" y1="0" x2="-16.06888370749726" y2="49.45493884734799" stroke="#fff8dc" stroke-width="5"/><line x1="0" y1="0" x2="-42.068883707497264" y2="30.564833119208608" stroke="#fff8dc" stroke-width="5"/><line x1="0" y1="0" x2="-52" y2="6.368163355566236e-15" stroke="#fff8dc" stroke-width="5"/><line x1="0" y1="0" x2="-42.068883707497264" y2="-30.564833119208597" stroke="#fff8dc" stroke-width="5"/><line x1="0" y1="0" x2="-16.068883707497275" y2="-49.45493884734798" stroke="#fff8dc" stroke-width="5"/><line x1="0" y1="0" x2="16.068883707497257" y2="-49.45493884734799" stroke="#fff8dc" stroke-width="5"/><line x1="0" y1="0" x2="42.068883707497264" y2="-30.564833119208615" stroke="#fff8dc" stroke-width="5"/>
      <ellipse cx="96" cy="-50" rx="24" ry="62" fill="#d6d7a3" transform="rotate(35 96 -50)"/>
      <ellipse cx="-92" cy="54" rx="22" ry="58" fill="#d6d7a3" transform="rotate(-42 -92 54)"/>
    </g>
  </g>
<g transform="translate(-90 844) rotate(15) scale(0.72)">
    <g opacity="0.92">
      <circle cx="0" cy="0" r="58" fill="#f6b53f" stroke="#fff8dc" stroke-width="8"/>
      <line x1="0" y1="0" x2="52" y2="0" stroke="#fff8dc" stroke-width="5"/><line x1="0" y1="0" x2="42.068883707497264" y2="30.564833119208604" stroke="#fff8dc" stroke-width="5"/><line x1="0" y1="0" x2="16.068883707497267" y2="49.45493884734798" stroke="#fff8dc" stroke-width="5"/><line x1="0" y1="0" x2="-16.06888370749726" y2="49.45493884734799" stroke="#fff8dc" stroke-width="5"/><line x1="0" y1="0" x2="-42.068883707497264" y2="30.564833119208608" stroke="#fff8dc" stroke-width="5"/><line x1="0" y1="0" x2="-52" y2="6.368163355566236e-15" stroke="#fff8dc" stroke-width="5"/><line x1="0" y1="0" x2="-42.068883707497264" y2="-30.564833119208597" stroke="#fff8dc" stroke-width="5"/><line x1="0" y1="0" x2="-16.068883707497275" y2="-49.45493884734798" stroke="#fff8dc" stroke-width="5"/><line x1="0" y1="0" x2="16.068883707497257" y2="-49.45493884734799" stroke="#fff8dc" stroke-width="5"/><line x1="0" y1="0" x2="42.068883707497264" y2="-30.564833119208615" stroke="#fff8dc" stroke-width="5"/>
      <ellipse cx="96" cy="-50" rx="24" ry="62" fill="#1f7a68" transform="rotate(35 96 -50)"/>
      <ellipse cx="-92" cy="54" rx="22" ry="58" fill="#1f7a68" transform="rotate(-42 -92 54)"/>
    </g>
  </g>
<g transform="translate(1566 1154) rotate(-1) scale(1.16)">
    <g opacity="0.92">
      <circle cx="0" cy="0" r="58" fill="#fce7a3" stroke="#fff8dc" stroke-width="8"/>
      <line x1="0" y1="0" x2="52" y2="0" stroke="#fff8dc" stroke-width="5"/><line x1="0" y1="0" x2="42.068883707497264" y2="30.564833119208604" stroke="#fff8dc" stroke-width="5"/><line x1="0" y1="0" x2="16.068883707497267" y2="49.45493884734798" stroke="#fff8dc" stroke-width="5"/><line x1="0" y1="0" x2="-16.06888370749726" y2="49.45493884734799" stroke="#fff8dc" stroke-width="5"/><line x1="0" y1="0" x2="-42.068883707497264" y2="30.564833119208608" stroke="#fff8dc" stroke-width="5"/><line x1="0" y1="0" x2="-52" y2="6.368163355566236e-15" stroke="#fff8dc" stroke-width="5"/><line x1="0" y1="0" x2="-42.068883707497264" y2="-30.564833119208597" stroke="#fff8dc" stroke-width="5"/><line x1="0" y1="0" x2="-16.068883707497275" y2="-49.45493884734798" stroke="#fff8dc" stroke-width="5"/><line x1="0" y1="0" x2="16.068883707497257" y2="-49.45493884734799" stroke="#fff8dc" stroke-width="5"/><line x1="0" y1="0" x2="42.068883707497264" y2="-30.564833119208615" stroke="#fff8dc" stroke-width="5"/>
      <ellipse cx="96" cy="-50" rx="24" ry="62" fill="#d6d7a3" transform="rotate(35 96 -50)"/>
      <ellipse cx="-92" cy="54" rx="22" ry="58" fill="#d6d7a3" transform="rotate(-42 -92 54)"/>
    </g>
  </g>
<g transform="translate(-41 1822) rotate(3) scale(0.8)">
    <g opacity="0.92">
      <circle cx="0" cy="0" r="58" fill="#f7f2df" stroke="#fff8dc" stroke-width="8"/>
      <line x1="0" y1="0" x2="52" y2="0" stroke="#fff8dc" stroke-width="5"/><line x1="0" y1="0" x2="42.068883707497264" y2="30.564833119208604" stroke="#fff8dc" stroke-width="5"/><line x1="0" y1="0" x2="16.068883707497267" y2="49.45493884734798" stroke="#fff8dc" stroke-width="5"/><line x1="0" y1="0" x2="-16.06888370749726" y2="49.45493884734799" stroke="#fff8dc" stroke-width="5"/><line x1="0" y1="0" x2="-42.068883707497264" y2="30.564833119208608" stroke="#fff8dc" stroke-width="5"/><line x1="0" y1="0" x2="-52" y2="6.368163355566236e-15" stroke="#fff8dc" stroke-width="5"/><line x1="0" y1="0" x2="-42.068883707497264" y2="-30.564833119208597" stroke="#fff8dc" stroke-width="5"/><line x1="0" y1="0" x2="-16.068883707497275" y2="-49.45493884734798" stroke="#fff8dc" stroke-width="5"/><line x1="0" y1="0" x2="16.068883707497257" y2="-49.45493884734799" stroke="#fff8dc" stroke-width="5"/><line x1="0" y1="0" x2="42.068883707497264" y2="-30.564833119208615" stroke="#fff8dc" stroke-width="5"/>
      <ellipse cx="96" cy="-50" rx="24" ry="62" fill="#1f7a68" transform="rotate(35 96 -50)"/>
      <ellipse cx="-92" cy="54" rx="22" ry="58" fill="#1f7a68" transform="rotate(-42 -92 54)"/>
    </g>
  </g>
<g transform="translate(1590 803) rotate(21) scale(0.62)">
    <g opacity="0.92">
      <circle cx="0" cy="0" r="58" fill="#f6b53f" stroke="#fff8dc" stroke-width="8"/>
      <line x1="0" y1="0" x2="52" y2="0" stroke="#fff8dc" stroke-width="5"/><line x1="0" y1="0" x2="42.068883707497264" y2="30.564833119208604" stroke="#fff8dc" stroke-width="5"/><line x1="0" y1="0" x2="16.068883707497267" y2="49.45493884734798" stroke="#fff8dc" stroke-width="5"/><line x1="0" y1="0" x2="-16.06888370749726" y2="49.45493884734799" stroke="#fff8dc" stroke-width="5"/><line x1="0" y1="0" x2="-42.068883707497264" y2="30.564833119208608" stroke="#fff8dc" stroke-width="5"/><line x1="0" y1="0" x2="-52" y2="6.368163355566236e-15" stroke="#fff8dc" stroke-width="5"/><line x1="0" y1="0" x2="-42.068883707497264" y2="-30.564833119208597" stroke="#fff8dc" stroke-width="5"/><line x1="0" y1="0" x2="-16.068883707497275" y2="-49.45493884734798" stroke="#fff8dc" stroke-width="5"/><line x1="0" y1="0" x2="16.068883707497257" y2="-49.45493884734799" stroke="#fff8dc" stroke-width="5"/><line x1="0" y1="0" x2="42.068883707497264" y2="-30.564833119208615" stroke="#fff8dc" stroke-width="5"/>
      <ellipse cx="96" cy="-50" rx="24" ry="62" fill="#d6d7a3" transform="rotate(35 96 -50)"/>
      <ellipse cx="-92" cy="54" rx="22" ry="58" fill="#d6d7a3" transform="rotate(-42 -92 54)"/>
    </g>
  </g>
<g transform="translate(4 1526) rotate(-10) scale(0.75)">
    <g opacity="0.92">
      <circle cx="0" cy="0" r="58" fill="#fce7a3" stroke="#fff8dc" stroke-width="8"/>
      <line x1="0" y1="0" x2="52" y2="0" stroke="#fff8dc" stroke-width="5"/><line x1="0" y1="0" x2="42.068883707497264" y2="30.564833119208604" stroke="#fff8dc" stroke-width="5"/><line x1="0" y1="0" x2="16.068883707497267" y2="49.45493884734798" stroke="#fff8dc" stroke-width="5"/><line x1="0" y1="0" x2="-16.06888370749726" y2="49.45493884734799" stroke="#fff8dc" stroke-width="5"/><line x1="0" y1="0" x2="-42.068883707497264" y2="30.564833119208608" stroke="#fff8dc" stroke-width="5"/><line x1="0" y1="0" x2="-52" y2="6.368163355566236e-15" stroke="#fff8dc" stroke-width="5"/><line x1="0" y1="0" x2="-42.068883707497264" y2="-30.564833119208597" stroke="#fff8dc" stroke-width="5"/><line x1="0" y1="0" x2="-16.068883707497275" y2="-49.45493884734798" stroke="#fff8dc" stroke-width="5"/><line x1="0" y1="0" x2="16.068883707497257" y2="-49.45493884734799" stroke="#fff8dc" stroke-width="5"/><line x1="0" y1="0" x2="42.068883707497264" y2="-30.564833119208615" stroke="#fff8dc" stroke-width="5"/>
      <ellipse cx="96" cy="-50" rx="24" ry="62" fill="#1f7a68" transform="rotate(35 96 -50)"/>
      <ellipse cx="-92" cy="54" rx="22" ry="58" fill="#1f7a68" transform="rotate(-42 -92 54)"/>
    </g>
  </g>
<g transform="translate(1309 1120) rotate(11) scale(0.6)">
    <g opacity="0.92">
      <circle cx="0" cy="0" r="58" fill="#f7f2df" stroke="#fff8dc" stroke-width="8"/>
      <line x1="0" y1="0" x2="52" y2="0" stroke="#fff8dc" stroke-width="5"/><line x1="0" y1="0" x2="42.068883707497264" y2="30.564833119208604" stroke="#fff8dc" stroke-width="5"/><line x1="0" y1="0" x2="16.068883707497267" y2="49.45493884734798" stroke="#fff8dc" stroke-width="5"/><line x1="0" y1="0" x2="-16.06888370749726" y2="49.45493884734799" stroke="#fff8dc" stroke-width="5"/><line x1="0" y1="0" x2="-42.068883707497264" y2="30.564833119208608" stroke="#fff8dc" stroke-width="5"/><line x1="0" y1="0" x2="-52" y2="6.368163355566236e-15" stroke="#fff8dc" stroke-width="5"/><line x1="0" y1="0" x2="-42.068883707497264" y2="-30.564833119208597" stroke="#fff8dc" stroke-width="5"/><line x1="0" y1="0" x2="-16.068883707497275" y2="-49.45493884734798" stroke="#fff8dc" stroke-width="5"/><line x1="0" y1="0" x2="16.068883707497257" y2="-49.45493884734799" stroke="#fff8dc" stroke-width="5"/><line x1="0" y1="0" x2="42.068883707497264" y2="-30.564833119208615" stroke="#fff8dc" stroke-width="5"/>
      <ellipse cx="96" cy="-50" rx="24" ry="62" fill="#d6d7a3" transform="rotate(35 96 -50)"/>
      <ellipse cx="-92" cy="54" rx="22" ry="58" fill="#d6d7a3" transform="rotate(-42 -92 54)"/>
    </g>
  </g>
<rect x="0" y="1450" width="1500" height="380" fill="#fffaf0" opacity="0.12"/>
<rect x="70" y="70" width="1360" height="1960" rx="28" fill="none" stroke="#f6b53f" stroke-width="5" opacity="0.34"/>
</svg>