<?xml version="1.0" encoding="UTF-8"?>
<svg xmlns="http://www.w3.org/2000/svg" width="1500" height="2100" viewBox="0 0 1500 2100" role="img" aria-label="CustomCard generated artwork layer" data-customcard-theme="sympathy-premium-still-life">
<rect width="1500" height="2100" fill="#fff8ea"/>

    <defs>
      <filter id="premiumStillLifeGrain" x="-8%" y="-8%" width="116%" height="116%">
        <feTurbulence type="fractalNoise" baseFrequency="0.013 0.031" numOctaves="4" seed="89"/>
        <feColorMatrix type="saturate" values="0"/>
        <feComponentTransfer>
          <feFuncA type="table" tableValues="0 0.14"/>
        </feComponentTransfer>
      </filter>
      <filter id="premiumStillLifeShadow" x="-18%" y="-18%" width="136%" height="136%">
        <feDropShadow dx="0" dy="24" stdDeviation="22" flood-color="#06100d" flood-opacity="0.14"/>
      </filter>
      <filter id="premiumStillLifeSoft" x="-12%" y="-12%" width="124%" height="124%">
        <feGaussianBlur stdDeviation="18"/>
      </filter>
      <linearGradient id="premiumStillLifeBeam" x1="0" x2="1" y1="0" y2="1">
        <stop offset="0" stop-color="#d7b56f" stop-opacity="0.24"/>
        <stop offset="0.46" stop-color="#d7b56f" stop-opacity="0.1"/>
        <stop offset="1" stop-color="#fff8ea" stop-opacity="0"/>
      </linearGradient>
      <linearGradient id="premiumStillLifePaper" x1="0" x2="1" y1="0" y2="1">
        <stop offset="0" stop-color="#fff7dd"/>
        <stop offset="1" stop-color="#d9bd7f"/>
      </linearGradient>
      <radialGradient id="premiumStillLifePool" cx="46%" cy="38%" r="64%">
        <stop offset="0" stop-color="#d7b56f" stop-opacity="0.24"/>
        <stop offset="0.7" stop-color="#d7b56f" stop-opacity="0.08"/>
        <stop offset="1" stop-color="#fff8ea" stop-opacity="0"/>
      </radialGradient>
    </defs>
    <rect width="1500" height="2100" fill="#fff8ea"/>
    <rect width="1500" height="2100" fill="#53685f" filter="url(#premiumStillLifeGrain)" opacity="0.08"/>
    <ellipse cx="760" cy="650" rx="560" ry="380" fill="url(#premiumStillLifePool)"/>
    <path d="M-160 150 C252 224 540 160 834 224 C1082 146 1310 182 1640 126 V520 C1250 504 972 588 650 654 C352 712 126 694 -160 760 Z" fill="url(#premiumStillLifeBeam)"/>
    <path d="M-120 1858 C260 1710 594 1796 906 1682 C1152 1592 1340 1614 1600 1522" fill="none" stroke="#d7b56f" stroke-width="13" stroke-linecap="round" opacity="0.1"/>


      <g data-customcard-hero="premium-still-life-interior-inside-left">
        <path d="M250 250 C464 206 656 258 862 214 C1046 176 1178 204 1268 174" fill="none" stroke="#d9bd7f" stroke-width="4" stroke-linecap="round" opacity="0.14"/>
        <path d="M178 270 C310 570 268 900 188 1210 C132 1424 196 1580 312 1718" fill="none" stroke="#53685f" stroke-width="10" stroke-linecap="round" opacity="0.16"/>
        <path d="M178 314 C270 620 250 910 220 1168 C198 1360 246 1510 332 1674" fill="none" stroke="#d9bd7f" stroke-width="5" stroke-linecap="round" opacity="0.16"/>
        <path d="M318 520 C406 480 482 524 492 630 C400 670 330 620 318 520Z" fill="#8da08e" opacity="0.12"/>
        <path d="M302 1224 C394 1178 470 1230 478 1340 C382 1384 310 1330 302 1224Z" fill="#8da08e" opacity="0.1"/>
        <g transform="translate(210 1548) scale(0.48 0.48)" opacity="0.38">
          <ellipse cx="412" cy="430" rx="410" ry="70" fill="#d9bd7f" opacity="0.12"/>
          <path d="M46 302 C176 214 356 238 492 174 C630 110 752 136 850 208 C734 328 582 342 420 412 C248 486 126 430 18 498 Z" fill="#fffdf6" opacity="0.72"/>
          <path d="M84 318 C218 264 348 286 490 230 C616 180 722 196 814 244" fill="none" stroke="#53685f" stroke-width="10" stroke-linecap="round" opacity="0.26"/>
          <path d="M496 278 C564 166 738 150 820 278 C758 344 566 346 496 278Z" fill="#d9bd7f" stroke="#53685f" stroke-width="9" stroke-linejoin="round" opacity="0.7"/>
        </g>
        <path d="M250 1828 C450 1764 642 1826 844 1778 C1040 1732 1180 1764 1268 1706" fill="none" stroke="#ad9160" stroke-width="5" stroke-linecap="round" opacity="0.14"/>
      </g>



<path d="M260 220 H1240" stroke="#d9bd7f" stroke-width="3" stroke-linecap="round" opacity="0.12"/>
</svg>